<svg width="36" height="35" viewBox="0 0 36 35" fill="none" xmlns="http://www.w3.org/2000/svg">
<path d="M26.5029 0H10.4512C5.22708 0 0.977051 4.25003 0.977051 9.47418V25.5261C0.977051 30.75 5.22708 35 10.4512 35H26.5031C31.727 35 35.9771 30.75 35.9771 25.5261V9.47418C35.9771 4.25003 31.727 0 26.5029 0V0ZM33.9252 25.5261C33.9252 29.6186 30.5956 32.9482 26.5029 32.9482H10.4512C6.35848 32.9482 3.0289 29.6186 3.0289 25.5261V9.47418C3.0289 5.38143 6.35848 2.05185 10.4512 2.05185H26.5031C30.5956 2.05185 33.9252 5.38143 33.9252 9.47418V25.5261Z" fill="#8AD2FB"/>
<path d="M18.477 8.1395C13.3156 8.1395 9.11658 12.3385 9.11658 17.5C9.11658 22.6614 13.3156 26.8604 18.477 26.8604C23.6385 26.8604 27.8375 22.6614 27.8375 17.5C27.8375 12.3385 23.6385 8.1395 18.477 8.1395ZM18.477 24.8535C14.4225 24.8535 11.1235 21.5548 11.1235 17.5C11.1235 13.4454 14.4225 10.1464 18.477 10.1464C22.5319 10.1464 25.8306 13.4454 25.8306 17.5C25.8306 21.5548 22.5319 24.8535 18.477 24.8535Z" fill="#8AD2FB"/>
<path d="M28.2443 4.06982C26.6734 4.06982 25.3956 5.53041 25.3956 7.32548C25.3956 9.12086 26.6734 10.5815 28.2443 10.5815C29.8153 10.5815 31.0933 9.12086 31.0933 7.32548C31.0933 5.53011 29.8153 4.06982 28.2443 4.06982ZM28.2443 8.21887C27.8134 8.21887 27.4626 7.81798 27.4626 7.32548C27.4626 6.83268 27.8134 6.4321 28.2443 6.4321C28.6755 6.4321 29.0263 6.83268 29.0263 7.32548C29.0263 7.81798 28.6755 8.21887 28.2443 8.21887Z" fill="#8AD2FB"/>
</svg>
