<svg width="48" height="46" viewBox="0 0 48 46" fill="none" xmlns="http://www.w3.org/2000/svg">
<path d="M0.277008 9.02855C0.551785 8.63475 0.993916 8.39134 1.47418 8.37083L31.249 7.0874C32.1033 7.05002 32.8172 7.70956 32.8537 8.55988C32.89 9.40988 32.2316 10.1281 31.3814 10.1646L3.62232 11.3612L9.08033 28.3906H33.3691L37.7573 4.49755C37.8537 3.97389 38.2132 3.53702 38.7091 3.34249L45.8961 0.519009C46.6882 0.208894 47.582 0.597961 47.8931 1.38909C48.2036 2.18066 47.8147 3.07502 47.023 3.3861L40.6326 5.89656L36.167 30.209C36.0324 30.9399 35.3955 31.4707 34.652 31.4707H33.9113L35.6028 36.1692C35.7444 36.5628 35.686 36.9998 35.4451 37.3417C35.2045 37.6838 34.8131 37.8872 34.3954 37.8872H33.209C33.9441 38.7054 34.3954 39.7827 34.3954 40.9674C34.3954 43.5152 32.3223 45.5877 29.7751 45.5877C27.2279 45.5877 25.1549 43.5152 25.1549 40.9674C25.1549 39.7828 25.6061 38.7054 26.3412 37.8872H16.2679C17.0034 38.7054 17.4545 39.7827 17.4545 40.9674C17.4545 43.5152 15.382 45.5877 12.8343 45.5877C10.2864 45.5877 8.21401 43.5152 8.21401 40.9674C8.21401 39.7828 8.66516 38.7054 9.40012 37.8872H7.95728C7.24832 37.8872 6.67385 37.3126 6.67385 36.6039C6.67385 35.8949 7.24843 35.3205 7.95728 35.3205H32.5693L31.1834 31.4703H7.95739C7.28764 31.4703 6.69501 31.0376 6.49103 30.4004L0.0739899 10.3791C-0.0733871 9.92215 0.00223541 9.42255 0.277008 9.02855ZM29.775 43.0214C30.9075 43.0214 31.8285 42.1005 31.8285 40.968C31.8285 39.8355 30.9075 38.9145 29.775 38.9145C28.6425 38.9145 27.7216 39.8355 27.7216 40.968C27.7216 42.1005 28.6425 43.0214 29.775 43.0214ZM12.8343 43.0214C13.9668 43.0214 14.8877 42.1005 14.8877 40.968C14.8877 39.8355 13.9668 38.9145 12.8343 38.9145C11.7018 38.9145 10.7809 39.8355 10.7809 40.968C10.7809 42.1005 11.7018 43.0214 12.8343 43.0214Z" fill="black"/>
</svg>
