<svg width="35" height="35" viewBox="0 0 35 35" fill="none" xmlns="http://www.w3.org/2000/svg">
<path d="M30.8783 0H4.09889C1.83876 0 0 1.83876 0 4.09889V30.8783C0 33.1384 1.83876 34.9772 4.09889 34.9772H30.8783C33.1384 34.9772 34.9772 33.1384 34.9772 30.8783V4.09889C34.9772 1.83876 33.1384 0 30.8783 0ZM32.2446 30.8783C32.2446 31.6317 31.6317 32.2446 30.8783 32.2446H23.0904V21.1093H27.3116L28.0091 16.8738H23.0904V13.9362C23.0904 12.7766 23.9802 11.8868 25.1399 11.8868H27.9408V7.65126H25.1399C21.6611 7.65126 18.8564 10.4692 18.8564 13.9481V16.8738H14.756V21.1093H18.8564V32.2446H4.09889C3.34551 32.2446 2.73259 31.6317 2.73259 30.8783V4.09889C2.73259 3.34551 3.34551 2.73259 4.09889 2.73259H30.8783C31.6317 2.73259 32.2446 3.34551 32.2446 4.09889V30.8783Z" fill="#8AD2FB"/>
</svg>
