<svg width="36" height="35" viewBox="0 0 36 35" fill="none" xmlns="http://www.w3.org/2000/svg">
<mask id="path-1-inside-1" fill="white">
<path d="M5.69897 0.359863C4.4165 0.359863 3.25057 0.826249 2.37614 1.70068C1.44344 2.63338 0.977051 3.79924 0.977051 5.02344C0.977051 6.30592 1.50171 7.47185 2.37614 8.34628C3.25057 9.22071 4.47477 9.74537 5.6407 9.68709C5.6407 9.68709 5.69897 9.68709 5.75731 9.68709C6.92324 9.68709 8.03083 9.22071 8.90526 8.34628C9.77969 7.47185 10.3043 6.30592 10.3043 5.02344C10.3626 3.79924 9.83796 2.63331 8.96353 1.75888C8.0891 0.82618 6.92317 0.359863 5.69897 0.359863ZM8.0891 7.53019C7.44783 8.17146 6.5734 8.5795 5.6407 8.52123C4.76627 8.52123 3.83357 8.17146 3.1923 7.53019C2.49275 6.88892 2.14298 5.95621 2.14298 5.02351C2.14298 4.09081 2.49275 3.21638 3.1923 2.51684C3.83357 1.87556 4.708 1.52579 5.69897 1.52579C6.5734 1.52579 7.44783 1.87556 8.0891 2.51684C8.78865 3.21638 9.13842 4.09081 9.13842 5.02351C9.13842 5.95621 8.78865 6.88892 8.0891 7.53019Z"/>
</mask>
<path d="M5.69897 0.359863C4.4165 0.359863 3.25057 0.826249 2.37614 1.70068C1.44344 2.63338 0.977051 3.79924 0.977051 5.02344C0.977051 6.30592 1.50171 7.47185 2.37614 8.34628C3.25057 9.22071 4.47477 9.74537 5.6407 9.68709C5.6407 9.68709 5.69897 9.68709 5.75731 9.68709C6.92324 9.68709 8.03083 9.22071 8.90526 8.34628C9.77969 7.47185 10.3043 6.30592 10.3043 5.02344C10.3626 3.79924 9.83796 2.63331 8.96353 1.75888C8.0891 0.82618 6.92317 0.359863 5.69897 0.359863ZM8.0891 7.53019C7.44783 8.17146 6.5734 8.5795 5.6407 8.52123C4.76627 8.52123 3.83357 8.17146 3.1923 7.53019C2.49275 6.88892 2.14298 5.95621 2.14298 5.02351C2.14298 4.09081 2.49275 3.21638 3.1923 2.51684C3.83357 1.87556 4.708 1.52579 5.69897 1.52579C6.5734 1.52579 7.44783 1.87556 8.0891 2.51684C8.78865 3.21638 9.13842 4.09081 9.13842 5.02351C9.13842 5.95621 8.78865 6.88892 8.0891 7.53019Z" fill="#8AD2FB"/>
<path d="M5.6407 9.68709V3.68709H5.49086L5.3412 3.69457L5.6407 9.68709ZM10.3043 5.02344L4.31114 4.73816L4.30435 4.88072V5.02344H10.3043ZM8.96353 1.75888L4.58636 5.86258L4.65251 5.93314L4.72089 6.00152L8.96353 1.75888ZM8.0891 7.53019L4.03468 3.10734L3.93861 3.1954L3.84646 3.28755L8.0891 7.53019ZM5.6407 8.52123L6.01483 2.53291L5.82795 2.52123H5.6407V8.52123ZM3.1923 7.53019L7.43494 3.28755L7.34279 3.1954L7.24672 3.10734L3.1923 7.53019ZM5.69897 -5.64014C2.91238 -5.64014 0.193329 -4.60179 -1.8665 -2.54196L6.61878 5.94332C6.48321 6.07889 6.31198 6.19308 6.12538 6.26821C5.94139 6.34228 5.78942 6.35986 5.69897 6.35986V-5.64014ZM-1.8665 -2.54196C-3.91717 -0.491294 -5.02295 2.19772 -5.02295 5.02344H6.97705C6.97705 5.18117 6.94528 5.36799 6.86739 5.55541C6.78912 5.74374 6.6892 5.8729 6.61878 5.94332L-1.8665 -2.54196ZM-5.02295 5.02344C-5.02295 8.00122 -3.79041 10.665 -1.8665 12.5889L6.61878 4.10364C6.79383 4.27869 6.97705 4.61061 6.97705 5.02344H-5.02295ZM-1.8665 12.5889C0.0402194 14.4956 2.85924 15.8336 5.9402 15.6796L5.3412 3.69457C5.75046 3.67412 6.03965 3.75852 6.2017 3.82587C6.36609 3.89418 6.50057 3.98543 6.61878 4.10364L-1.8665 12.5889ZM5.6407 9.68709C5.6407 15.6871 5.6407 15.6871 5.6407 15.6871C5.6407 15.6871 5.6407 15.6871 5.6407 15.6871C5.6407 15.6871 5.6407 15.6871 5.64071 15.6871C5.64071 15.6871 5.64071 15.6871 5.64071 15.6871C5.64071 15.6871 5.64071 15.6871 5.64072 15.6871C5.64072 15.6871 5.64072 15.6871 5.64072 15.6871C5.64073 15.6871 5.64073 15.6871 5.64073 15.6871C5.64074 15.6871 5.64074 15.6871 5.64074 15.6871C5.64075 15.6871 5.64075 15.6871 5.64075 15.6871C5.64076 15.6871 5.64076 15.6871 5.64077 15.6871C5.64077 15.6871 5.64078 15.6871 5.64078 15.6871C5.64079 15.6871 5.64079 15.6871 5.6408 15.6871C5.6408 15.6871 5.64081 15.6871 5.64081 15.6871C5.64082 15.6871 5.64082 15.6871 5.64083 15.6871C5.64084 15.6871 5.64084 15.6871 5.64085 15.6871C5.64086 15.6871 5.64086 15.6871 5.64087 15.6871C5.64088 15.6871 5.64088 15.6871 5.64089 15.6871C5.6409 15.6871 5.64091 15.6871 5.64091 15.6871C5.64092 15.6871 5.64093 15.6871 5.64094 15.6871C5.64095 15.6871 5.64095 15.6871 5.64096 15.6871C5.64097 15.6871 5.64098 15.6871 5.64099 15.6871C5.641 15.6871 5.64101 15.6871 5.64102 15.6871C5.64103 15.6871 5.64104 15.6871 5.64105 15.6871C5.64106 15.6871 5.64107 15.6871 5.64108 15.6871C5.64109 15.6871 5.6411 15.6871 5.64111 15.6871C5.64112 15.6871 5.64113 15.6871 5.64114 15.6871C5.64115 15.6871 5.64117 15.6871 5.64118 15.6871C5.64119 15.6871 5.6412 15.6871 5.64121 15.6871C5.64123 15.6871 5.64124 15.6871 5.64125 15.6871C5.64126 15.6871 5.64128 15.6871 5.64129 15.6871C5.6413 15.6871 5.64131 15.6871 5.64133 15.6871C5.64134 15.6871 5.64136 15.6871 5.64137 15.6871C5.64138 15.6871 5.6414 15.6871 5.64141 15.6871C5.64142 15.6871 5.64144 15.6871 5.64145 15.6871C5.64147 15.6871 5.64148 15.6871 5.6415 15.6871C5.64151 15.6871 5.64153 15.6871 5.64154 15.6871C5.64156 15.6871 5.64158 15.6871 5.64159 15.6871C5.64161 15.6871 5.64162 15.6871 5.64164 15.6871C5.64166 15.6871 5.64167 15.6871 5.64169 15.6871C5.64171 15.6871 5.64172 15.6871 5.64174 15.6871C5.64176 15.6871 5.64177 15.6871 5.64179 15.6871C5.64181 15.6871 5.64183 15.6871 5.64184 15.6871C5.64186 15.6871 5.64188 15.6871 5.6419 15.6871C5.64192 15.6871 5.64194 15.6871 5.64195 15.6871C5.64197 15.6871 5.64199 15.6871 5.64201 15.6871C5.64203 15.6871 5.64205 15.6871 5.64207 15.6871C5.64209 15.6871 5.64211 15.6871 5.64213 15.6871C5.64215 15.6871 5.64217 15.6871 5.64219 15.6871C5.64221 15.6871 5.64223 15.6871 5.64225 15.6871C5.64227 15.6871 5.64229 15.6871 5.64231 15.6871C5.64233 15.6871 5.64236 15.6871 5.64238 15.6871C5.6424 15.6871 5.64242 15.6871 5.64244 15.6871C5.64246 15.6871 5.64249 15.6871 5.64251 15.6871C5.64253 15.6871 5.64255 15.6871 5.64258 15.6871C5.6426 15.6871 5.64262 15.6871 5.64265 15.6871C5.64267 15.6871 5.64269 15.6871 5.64271 15.6871C5.64274 15.6871 5.64276 15.6871 5.64279 15.6871C5.64281 15.6871 5.64283 15.6871 5.64286 15.6871C5.64288 15.6871 5.64291 15.6871 5.64293 15.6871C5.64296 15.6871 5.64298 15.6871 5.64301 15.6871C5.64303 15.6871 5.64306 15.6871 5.64308 15.6871C5.64311 15.6871 5.64313 15.6871 5.64316 15.6871C5.64319 15.6871 5.64321 15.6871 5.64324 15.6871C5.64326 15.6871 5.64329 15.6871 5.64332 15.6871C5.64334 15.6871 5.64337 15.6871 5.6434 15.6871C5.64343 15.6871 5.64345 15.6871 5.64348 15.6871C5.64351 15.6871 5.64354 15.6871 5.64356 15.6871C5.64359 15.6871 5.64362 15.6871 5.64365 15.6871C5.64368 15.6871 5.6437 15.6871 5.64373 15.6871C5.64376 15.6871 5.64379 15.6871 5.64382 15.6871C5.64385 15.6871 5.64388 15.6871 5.64391 15.6871C5.64394 15.6871 5.64397 15.6871 5.644 15.6871C5.64402 15.6871 5.64405 15.6871 5.64408 15.6871C5.64412 15.6871 5.64415 15.6871 5.64418 15.6871C5.64421 15.6871 5.64424 15.6871 5.64427 15.6871C5.6443 15.6871 5.64433 15.6871 5.64436 15.6871C5.64439 15.6871 5.64442 15.6871 5.64446 15.6871C5.64449 15.6871 5.64452 15.6871 5.64455 15.6871C5.64458 15.6871 5.64462 15.6871 5.64465 15.6871C5.64468 15.6871 5.64471 15.6871 5.64475 15.6871C5.64478 15.6871 5.64481 15.6871 5.64485 15.6871C5.64488 15.6871 5.64491 15.6871 5.64495 15.6871C5.64498 15.6871 5.64501 15.6871 5.64505 15.6871C5.64508 15.6871 5.64511 15.6871 5.64515 15.6871C5.64518 15.6871 5.64522 15.6871 5.64525 15.6871C5.64529 15.6871 5.64532 15.6871 5.64536 15.6871C5.64539 15.6871 5.64543 15.6871 5.64546 15.6871C5.6455 15.6871 5.64553 15.6871 5.64557 15.6871C5.6456 15.6871 5.64564 15.6871 5.64568 15.6871C5.64571 15.6871 5.64575 15.6871 5.64579 15.6871C5.64582 15.6871 5.64586 15.6871 5.6459 15.6871C5.64593 15.6871 5.64597 15.6871 5.64601 15.6871C5.64604 15.6871 5.64608 15.6871 5.64612 15.6871C5.64616 15.6871 5.64619 15.6871 5.64623 15.6871C5.64627 15.6871 5.64631 15.6871 5.64635 15.6871C5.64639 15.6871 5.64642 15.6871 5.64646 15.6871C5.6465 15.6871 5.64654 15.6871 5.64658 15.6871C5.64662 15.6871 5.64666 15.6871 5.6467 15.6871C5.64674 15.6871 5.64678 15.6871 5.64682 15.6871C5.64685 15.6871 5.64689 15.6871 5.64693 15.6871C5.64698 15.6871 5.64702 15.6871 5.64706 15.6871C5.6471 15.6871 5.64714 15.6871 5.64718 15.6871C5.64722 15.6871 5.64726 15.6871 5.6473 15.6871C5.64734 15.6871 5.64738 15.6871 5.64743 15.6871C5.64747 15.6871 5.64751 15.6871 5.64755 15.6871C5.64759 15.6871 5.64763 15.6871 5.64768 15.6871C5.64772 15.6871 5.64776 15.6871 5.6478 15.6871C5.64785 15.6871 5.64789 15.6871 5.64793 15.6871C5.64797 15.6871 5.64802 15.6871 5.64806 15.6871C5.64811 15.6871 5.64815 15.6871 5.64819 15.6871C5.64824 15.6871 5.64828 15.6871 5.64832 15.6871C5.64837 15.6871 5.64841 15.6871 5.64846 15.6871C5.6485 15.6871 5.64854 15.6871 5.64859 15.6871C5.64863 15.6871 5.64868 15.6871 5.64872 15.6871C5.64877 15.6871 5.64881 15.6871 5.64886 15.6871C5.64891 15.6871 5.64895 15.6871 5.649 15.6871C5.64904 15.6871 5.64909 15.6871 5.64913 15.6871C5.64918 15.6871 5.64923 15.6871 5.64927 15.6871C5.64932 15.6871 5.64937 15.6871 5.64941 15.6871C5.64946 15.6871 5.64951 15.6871 5.64955 15.6871C5.6496 15.6871 5.64965 15.6871 5.6497 15.6871C5.64974 15.6871 5.64979 15.6871 5.64984 15.6871C5.64989 15.6871 5.64993 15.6871 5.64998 15.6871C5.65003 15.6871 5.65008 15.6871 5.65013 15.6871C5.65018 15.6871 5.65022 15.6871 5.65027 15.6871C5.65032 15.6871 5.65037 15.6871 5.65042 15.6871C5.65047 15.6871 5.65052 15.6871 5.65057 15.6871C5.65062 15.6871 5.65067 15.6871 5.65072 15.6871C5.65077 15.6871 5.65082 15.6871 5.65087 15.6871C5.65092 15.6871 5.65097 15.6871 5.65102 15.6871C5.65107 15.6871 5.65112 15.6871 5.65117 15.6871C5.65122 15.6871 5.65127 15.6871 5.65132 15.6871C5.65137 15.6871 5.65142 15.6871 5.65148 15.6871C5.65153 15.6871 5.65158 15.6871 5.65163 15.6871C5.65168 15.6871 5.65173 15.6871 5.65179 15.6871C5.65184 15.6871 5.65189 15.6871 5.65194 15.6871C5.652 15.6871 5.65205 15.6871 5.6521 15.6871C5.65215 15.6871 5.65221 15.6871 5.65226 15.6871C5.65231 15.6871 5.65237 15.6871 5.65242 15.6871C5.65247 15.6871 5.65253 15.6871 5.65258 15.6871C5.65263 15.6871 5.65269 15.6871 5.65274 15.6871C5.6528 15.6871 5.65285 15.6871 5.65291 15.6871C5.65296 15.6871 5.65301 15.6871 5.65307 15.6871C5.65312 15.6871 5.65318 15.6871 5.65323 15.6871C5.65329 15.6871 5.65334 15.6871 5.6534 15.6871C5.65345 15.6871 5.65351 15.6871 5.65357 15.6871C5.65362 15.6871 5.65368 15.6871 5.65373 15.6871C5.65379 15.6871 5.65385 15.6871 5.6539 15.6871C5.65396 15.6871 5.65401 15.6871 5.65407 15.6871C5.65413 15.6871 5.65418 15.6871 5.65424 15.6871C5.6543 15.6871 5.65436 15.6871 5.65441 15.6871C5.65447 15.6871 5.65453 15.6871 5.65458 15.6871C5.65464 15.6871 5.6547 15.6871 5.65476 15.6871C5.65482 15.6871 5.65487 15.6871 5.65493 15.6871C5.65499 15.6871 5.65505 15.6871 5.65511 15.6871C5.65517 15.6871 5.65522 15.6871 5.65528 15.6871C5.65534 15.6871 5.6554 15.6871 5.65546 15.6871C5.65552 15.6871 5.65558 15.6871 5.65564 15.6871C5.6557 15.6871 5.65576 15.6871 5.65582 15.6871C5.65588 15.6871 5.65594 15.6871 5.656 15.6871C5.65606 15.6871 5.65612 15.6871 5.65618 15.6871C5.65624 15.6871 5.6563 15.6871 5.65636 15.6871C5.65642 15.6871 5.65648 15.6871 5.65654 15.6871C5.6566 15.6871 5.65666 15.6871 5.65672 15.6871C5.65679 15.6871 5.65685 15.6871 5.65691 15.6871C5.65697 15.6871 5.65703 15.6871 5.65709 15.6871C5.65715 15.6871 5.65722 15.6871 5.65728 15.6871C5.65734 15.6871 5.6574 15.6871 5.65747 15.6871C5.65753 15.6871 5.65759 15.6871 5.65765 15.6871C5.65772 15.6871 5.65778 15.6871 5.65784 15.6871C5.65791 15.6871 5.65797 15.6871 5.65803 15.6871C5.6581 15.6871 5.65816 15.6871 5.65822 15.6871C5.65829 15.6871 5.65835 15.6871 5.65841 15.6871C5.65848 15.6871 5.65854 15.6871 5.65861 15.6871C5.65867 15.6871 5.65873 15.6871 5.6588 15.6871C5.65886 15.6871 5.65893 15.6871 5.65899 15.6871C5.65906 15.6871 5.65912 15.6871 5.65919 15.6871C5.65925 15.6871 5.65932 15.6871 5.65938 15.6871C5.65945 15.6871 5.65951 15.6871 5.65958 15.6871C5.65965 15.6871 5.65971 15.6871 5.65978 15.6871C5.65984 15.6871 5.65991 15.6871 5.65998 15.6871C5.66004 15.6871 5.66011 15.6871 5.66018 15.6871C5.66024 15.6871 5.66031 15.6871 5.66038 15.6871C5.66044 15.6871 5.66051 15.6871 5.66058 15.6871C5.66064 15.6871 5.66071 15.6871 5.66078 15.6871C5.66085 15.6871 5.66091 15.6871 5.66098 15.6871C5.66105 15.6871 5.66112 15.6871 5.66118 15.6871C5.66125 15.6871 5.66132 15.6871 5.66139 15.6871C5.66146 15.6871 5.66153 15.6871 5.66159 15.6871C5.66166 15.6871 5.66173 15.6871 5.6618 15.6871C5.66187 15.6871 5.66194 15.6871 5.66201 15.6871C5.66208 15.6871 5.66215 15.6871 5.66221 15.6871C5.66228 15.6871 5.66235 15.6871 5.66242 15.6871C5.66249 15.6871 5.66256 15.6871 5.66263 15.6871C5.6627 15.6871 5.66277 15.6871 5.66284 15.6871C5.66291 15.6871 5.66298 15.6871 5.66305 15.6871C5.66312 15.6871 5.66319 15.6871 5.66327 15.6871C5.66334 15.6871 5.66341 15.6871 5.66348 15.6871C5.66355 15.6871 5.66362 15.6871 5.66369 15.6871C5.66376 15.6871 5.66383 15.6871 5.66391 15.6871C5.66398 15.6871 5.66405 15.6871 5.66412 15.6871C5.66419 15.6871 5.66426 15.6871 5.66434 15.6871C5.66441 15.6871 5.66448 15.6871 5.66455 15.6871C5.66463 15.6871 5.6647 15.6871 5.66477 15.6871C5.66484 15.6871 5.66492 15.6871 5.66499 15.6871C5.66506 15.6871 5.66514 15.6871 5.66521 15.6871C5.66528 15.6871 5.66536 15.6871 5.66543 15.6871C5.6655 15.6871 5.66558 15.6871 5.66565 15.6871C5.66572 15.6871 5.6658 15.6871 5.66587 15.6871C5.66595 15.6871 5.66602 15.6871 5.66609 15.6871C5.66617 15.6871 5.66624 15.6871 5.66632 15.6871C5.66639 15.6871 5.66647 15.6871 5.66654 15.6871C5.66662 15.6871 5.66669 15.6871 5.66676 15.6871C5.66684 15.6871 5.66691 15.6871 5.66699 15.6871C5.66707 15.6871 5.66714 15.6871 5.66722 15.6871C5.66729 15.6871 5.66737 15.6871 5.66744 15.6871C5.66752 15.6871 5.6676 15.6871 5.66767 15.6871C5.66775 15.6871 5.66782 15.6871 5.6679 15.6871C5.66798 15.6871 5.66805 15.6871 5.66813 15.6871C5.66821 15.6871 5.66828 15.6871 5.66836 15.6871C5.66844 15.6871 5.66851 15.6871 5.66859 15.6871C5.66867 15.6871 5.66874 15.6871 5.66882 15.6871C5.6689 15.6871 5.66898 15.6871 5.66905 15.6871C5.66913 15.6871 5.66921 15.6871 5.66929 15.6871C5.66936 15.6871 5.66944 15.6871 5.66952 15.6871C5.6696 15.6871 5.66968 15.6871 5.66976 15.6871C5.66983 15.6871 5.66991 15.6871 5.66999 15.6871C5.67007 15.6871 5.67015 15.6871 5.67023 15.6871C5.67031 15.6871 5.67038 15.6871 5.67046 15.6871C5.67054 15.6871 5.67062 15.6871 5.6707 15.6871C5.67078 15.6871 5.67086 15.6871 5.67094 15.6871C5.67102 15.6871 5.6711 15.6871 5.67118 15.6871C5.67126 15.6871 5.67134 15.6871 5.67142 15.6871C5.6715 15.6871 5.67158 15.6871 5.67166 15.6871C5.67174 15.6871 5.67182 15.6871 5.6719 15.6871C5.67198 15.6871 5.67206 15.6871 5.67214 15.6871C5.67222 15.6871 5.6723 15.6871 5.67239 15.6871C5.67247 15.6871 5.67255 15.6871 5.67263 15.6871C5.67271 15.6871 5.67279 15.6871 5.67287 15.6871C5.67295 15.6871 5.67304 15.6871 5.67312 15.6871C5.6732 15.6871 5.67328 15.6871 5.67336 15.6871C5.67344 15.6871 5.67353 15.6871 5.67361 15.6871C5.67369 15.6871 5.67377 15.6871 5.67386 15.6871C5.67394 15.6871 5.67402 15.6871 5.6741 15.6871C5.67419 15.6871 5.67427 15.6871 5.67435 15.6871C5.67443 15.6871 5.67452 15.6871 5.6746 15.6871C5.67468 15.6871 5.67477 15.6871 5.67485 15.6871C5.67493 15.6871 5.67502 15.6871 5.6751 15.6871C5.67518 15.6871 5.67527 15.6871 5.67535 15.6871C5.67544 15.6871 5.67552 15.6871 5.6756 15.6871C5.67569 15.6871 5.67577 15.6871 5.67586 15.6871C5.67594 15.6871 5.67602 15.6871 5.67611 15.6871C5.67619 15.6871 5.67628 15.6871 5.67636 15.6871C5.67645 15.6871 5.67653 15.6871 5.67662 15.6871C5.6767 15.6871 5.67679 15.6871 5.67687 15.6871C5.67696 15.6871 5.67704 15.6871 5.67713 15.6871C5.67721 15.6871 5.6773 15.6871 5.67739 15.6871C5.67747 15.6871 5.67756 15.6871 5.67764 15.6871C5.67773 15.6871 5.67781 15.6871 5.6779 15.6871C5.67799 15.6871 5.67807 15.6871 5.67816 15.6871C5.67825 15.6871 5.67833 15.6871 5.67842 15.6871C5.6785 15.6871 5.67859 15.6871 5.67868 15.6871C5.67876 15.6871 5.67885 15.6871 5.67894 15.6871C5.67903 15.6871 5.67911 15.6871 5.6792 15.6871C5.67929 15.6871 5.67937 15.6871 5.67946 15.6871C5.67955 15.6871 5.67964 15.6871 5.67972 15.6871C5.67981 15.6871 5.6799 15.6871 5.67999 15.6871C5.68007 15.6871 5.68016 15.6871 5.68025 15.6871C5.68034 15.6871 5.68043 15.6871 5.68051 15.6871C5.6806 15.6871 5.68069 15.6871 5.68078 15.6871C5.68087 15.6871 5.68096 15.6871 5.68105 15.6871C5.68113 15.6871 5.68122 15.6871 5.68131 15.6871C5.6814 15.6871 5.68149 15.6871 5.68158 15.6871C5.68167 15.6871 5.68176 15.6871 5.68185 15.6871C5.68194 15.6871 5.68202 15.6871 5.68211 15.6871C5.6822 15.6871 5.68229 15.6871 5.68238 15.6871C5.68247 15.6871 5.68256 15.6871 5.68265 15.6871C5.68274 15.6871 5.68283 15.6871 5.68292 15.6871C5.68301 15.6871 5.6831 15.6871 5.68319 15.6871C5.68328 15.6871 5.68337 15.6871 5.68346 15.6871C5.68355 15.6871 5.68364 15.6871 5.68374 15.6871C5.68383 15.6871 5.68392 15.6871 5.68401 15.6871C5.6841 15.6871 5.68419 15.6871 5.68428 15.6871C5.68437 15.6871 5.68446 15.6871 5.68455 15.6871C5.68465 15.6871 5.68474 15.6871 5.68483 15.6871C5.68492 15.6871 5.68501 15.6871 5.6851 15.6871C5.68519 15.6871 5.68529 15.6871 5.68538 15.6871C5.68547 15.6871 5.68556 15.6871 5.68565 15.6871C5.68575 15.6871 5.68584 15.6871 5.68593 15.6871C5.68602 15.6871 5.68612 15.6871 5.68621 15.6871C5.6863 15.6871 5.68639 15.6871 5.68649 15.6871C5.68658 15.6871 5.68667 15.6871 5.68676 15.6871C5.68686 15.6871 5.68695 15.6871 5.68704 15.6871C5.68714 15.6871 5.68723 15.6871 5.68732 15.6871C5.68742 15.6871 5.68751 15.6871 5.6876 15.6871C5.6877 15.6871 5.68779 15.6871 5.68788 15.6871C5.68798 15.6871 5.68807 15.6871 5.68816 15.6871C5.68826 15.6871 5.68835 15.6871 5.68845 15.6871C5.68854 15.6871 5.68863 15.6871 5.68873 15.6871C5.68882 15.6871 5.68892 15.6871 5.68901 15.6871C5.6891 15.6871 5.6892 15.6871 5.68929 15.6871C5.68939 15.6871 5.68948 15.6871 5.68958 15.6871C5.68967 15.6871 5.68977 15.6871 5.68986 15.6871C5.68996 15.6871 5.69005 15.6871 5.69015 15.6871C5.69024 15.6871 5.69034 15.6871 5.69043 15.6871C5.69053 15.6871 5.69062 15.6871 5.69072 15.6871C5.69081 15.6871 5.69091 15.6871 5.691 15.6871C5.6911 15.6871 5.6912 15.6871 5.69129 15.6871C5.69139 15.6871 5.69148 15.6871 5.69158 15.6871C5.69168 15.6871 5.69177 15.6871 5.69187 15.6871C5.69196 15.6871 5.69206 15.6871 5.69216 15.6871C5.69225 15.6871 5.69235 15.6871 5.69245 15.6871C5.69254 15.6871 5.69264 15.6871 5.69274 15.6871C5.69283 15.6871 5.69293 15.6871 5.69303 15.6871C5.69312 15.6871 5.69322 15.6871 5.69332 15.6871C5.69341 15.6871 5.69351 15.6871 5.69361 15.6871C5.69371 15.6871 5.6938 15.6871 5.6939 15.6871C5.694 15.6871 5.69409 15.6871 5.69419 15.6871C5.69429 15.6871 5.69439 15.6871 5.69448 15.6871C5.69458 15.6871 5.69468 15.6871 5.69478 15.6871C5.69488 15.6871 5.69497 15.6871 5.69507 15.6871C5.69517 15.6871 5.69527 15.6871 5.69537 15.6871C5.69546 15.6871 5.69556 15.6871 5.69566 15.6871C5.69576 15.6871 5.69586 15.6871 5.69596 15.6871C5.69605 15.6871 5.69615 15.6871 5.69625 15.6871C5.69635 15.6871 5.69645 15.6871 5.69655 15.6871C5.69665 15.6871 5.69675 15.6871 5.69685 15.6871C5.69694 15.6871 5.69704 15.6871 5.69714 15.6871C5.69724 15.6871 5.69734 15.6871 5.69744 15.6871C5.69754 15.6871 5.69764 15.6871 5.69774 15.6871C5.69784 15.6871 5.69794 15.6871 5.69804 15.6871C5.69814 15.6871 5.69824 15.6871 5.69834 15.6871C5.69844 15.6871 5.69854 15.6871 5.69864 15.6871C5.69874 15.6871 5.69884 15.6871 5.69894 15.6871C5.69904 15.6871 5.69914 15.6871 5.69924 15.6871C5.69934 15.6871 5.69944 15.6871 5.69954 15.6871C5.69964 15.6871 5.69974 15.6871 5.69984 15.6871C5.69994 15.6871 5.70004 15.6871 5.70014 15.6871C5.70024 15.6871 5.70034 15.6871 5.70044 15.6871C5.70054 15.6871 5.70065 15.6871 5.70075 15.6871C5.70085 15.6871 5.70095 15.6871 5.70105 15.6871C5.70115 15.6871 5.70125 15.6871 5.70135 15.6871C5.70146 15.6871 5.70156 15.6871 5.70166 15.6871C5.70176 15.6871 5.70186 15.6871 5.70196 15.6871C5.70206 15.6871 5.70217 15.6871 5.70227 15.6871C5.70237 15.6871 5.70247 15.6871 5.70257 15.6871C5.70267 15.6871 5.70278 15.6871 5.70288 15.6871C5.70298 15.6871 5.70308 15.6871 5.70319 15.6871C5.70329 15.6871 5.70339 15.6871 5.70349 15.6871C5.70359 15.6871 5.7037 15.6871 5.7038 15.6871C5.7039 15.6871 5.704 15.6871 5.70411 15.6871C5.70421 15.6871 5.70431 15.6871 5.70442 15.6871C5.70452 15.6871 5.70462 15.6871 5.70472 15.6871C5.70483 15.6871 5.70493 15.6871 5.70503 15.6871C5.70514 15.6871 5.70524 15.6871 5.70534 15.6871C5.70545 15.6871 5.70555 15.6871 5.70565 15.6871C5.70575 15.6871 5.70586 15.6871 5.70596 15.6871C5.70607 15.6871 5.70617 15.6871 5.70627 15.6871C5.70638 15.6871 5.70648 15.6871 5.70658 15.6871C5.70669 15.6871 5.70679 15.6871 5.70689 15.6871C5.707 15.6871 5.7071 15.6871 5.70721 15.6871C5.70731 15.6871 5.70741 15.6871 5.70752 15.6871C5.70762 15.6871 5.70773 15.6871 5.70783 15.6871C5.70794 15.6871 5.70804 15.6871 5.70814 15.6871C5.70825 15.6871 5.70835 15.6871 5.70846 15.6871C5.70856 15.6871 5.70867 15.6871 5.70877 15.6871C5.70888 15.6871 5.70898 15.6871 5.70908 15.6871C5.70919 15.6871 5.70929 15.6871 5.7094 15.6871C5.7095 15.6871 5.70961 15.6871 5.70971 15.6871C5.70982 15.6871 5.70992 15.6871 5.71003 15.6871C5.71013 15.6871 5.71024 15.6871 5.71035 15.6871C5.71045 15.6871 5.71056 15.6871 5.71066 15.6871C5.71077 15.6871 5.71087 15.6871 5.71098 15.6871C5.71108 15.6871 5.71119 15.6871 5.71129 15.6871C5.7114 15.6871 5.71151 15.6871 5.71161 15.6871C5.71172 15.6871 5.71182 15.6871 5.71193 15.6871C5.71203 15.6871 5.71214 15.6871 5.71225 15.6871C5.71235 15.6871 5.71246 15.6871 5.71256 15.6871C5.71267 15.6871 5.71278 15.6871 5.71288 15.6871C5.71299 15.6871 5.7131 15.6871 5.7132 15.6871C5.71331 15.6871 5.71341 15.6871 5.71352 15.6871C5.71363 15.6871 5.71373 15.6871 5.71384 15.6871C5.71395 15.6871 5.71405 15.6871 5.71416 15.6871C5.71427 15.6871 5.71437 15.6871 5.71448 15.6871C5.71459 15.6871 5.71469 15.6871 5.7148 15.6871C5.71491 15.6871 5.71501 15.6871 5.71512 15.6871C5.71523 15.6871 5.71534 15.6871 5.71544 15.6871C5.71555 15.6871 5.71566 15.6871 5.71576 15.6871C5.71587 15.6871 5.71598 15.6871 5.71609 15.6871C5.71619 15.6871 5.7163 15.6871 5.71641 15.6871C5.71652 15.6871 5.71662 15.6871 5.71673 15.6871C5.71684 15.6871 5.71695 15.6871 5.71705 15.6871C5.71716 15.6871 5.71727 15.6871 5.71738 15.6871C5.71748 15.6871 5.71759 15.6871 5.7177 15.6871C5.71781 15.6871 5.71792 15.6871 5.71802 15.6871C5.71813 15.6871 5.71824 15.6871 5.71835 15.6871C5.71846 15.6871 5.71856 15.6871 5.71867 15.6871C5.71878 15.6871 5.71889 15.6871 5.719 15.6871C5.7191 15.6871 5.71921 15.6871 5.71932 15.6871C5.71943 15.6871 5.71954 15.6871 5.71965 15.6871C5.71975 15.6871 5.71986 15.6871 5.71997 15.6871C5.72008 15.6871 5.72019 15.6871 5.7203 15.6871C5.72041 15.6871 5.72051 15.6871 5.72062 15.6871C5.72073 15.6871 5.72084 15.6871 5.72095 15.6871C5.72106 15.6871 5.72117 15.6871 5.72128 15.6871C5.72139 15.6871 5.72149 15.6871 5.7216 15.6871C5.72171 15.6871 5.72182 15.6871 5.72193 15.6871C5.72204 15.6871 5.72215 15.6871 5.72226 15.6871C5.72237 15.6871 5.72248 15.6871 5.72259 15.6871C5.7227 15.6871 5.7228 15.6871 5.72291 15.6871C5.72302 15.6871 5.72313 15.6871 5.72324 15.6871C5.72335 15.6871 5.72346 15.6871 5.72357 15.6871C5.72368 15.6871 5.72379 15.6871 5.7239 15.6871C5.72401 15.6871 5.72412 15.6871 5.72423 15.6871C5.72434 15.6871 5.72445 15.6871 5.72456 15.6871C5.72467 15.6871 5.72478 15.6871 5.72489 15.6871C5.725 15.6871 5.72511 15.6871 5.72522 15.6871C5.72533 15.6871 5.72544 15.6871 5.72555 15.6871C5.72566 15.6871 5.72577 15.6871 5.72588 15.6871C5.72599 15.6871 5.7261 15.6871 5.72621 15.6871C5.72632 15.6871 5.72643 15.6871 5.72654 15.6871C5.72665 15.6871 5.72676 15.6871 5.72687 15.6871C5.72698 15.6871 5.72709 15.6871 5.7272 15.6871C5.72731 15.6871 5.72742 15.6871 5.72753 15.6871C5.72764 15.6871 5.72775 15.6871 5.72786 15.6871C5.72798 15.6871 5.72809 15.6871 5.7282 15.6871C5.72831 15.6871 5.72842 15.6871 5.72853 15.6871C5.72864 15.6871 5.72875 15.6871 5.72886 15.6871C5.72897 15.6871 5.72908 15.6871 5.72919 15.6871C5.7293 15.6871 5.72942 15.6871 5.72953 15.6871C5.72964 15.6871 5.72975 15.6871 5.72986 15.6871C5.72997 15.6871 5.73008 15.6871 5.73019 15.6871C5.7303 15.6871 5.73042 15.6871 5.73053 15.6871C5.73064 15.6871 5.73075 15.6871 5.73086 15.6871C5.73097 15.6871 5.73108 15.6871 5.73119 15.6871C5.73131 15.6871 5.73142 15.6871 5.73153 15.6871C5.73164 15.6871 5.73175 15.6871 5.73186 15.6871C5.73197 15.6871 5.73209 15.6871 5.7322 15.6871C5.73231 15.6871 5.73242 15.6871 5.73253 15.6871C5.73264 15.6871 5.73276 15.6871 5.73287 15.6871C5.73298 15.6871 5.73309 15.6871 5.7332 15.6871C5.73331 15.6871 5.73343 15.6871 5.73354 15.6871C5.73365 15.6871 5.73376 15.6871 5.73387 15.6871C5.73398 15.6871 5.7341 15.6871 5.73421 15.6871C5.73432 15.6871 5.73443 15.6871 5.73454 15.6871C5.73466 15.6871 5.73477 15.6871 5.73488 15.6871C5.73499 15.6871 5.7351 15.6871 5.73522 15.6871C5.73533 15.6871 5.73544 15.6871 5.73555 15.6871C5.73566 15.6871 5.73578 15.6871 5.73589 15.6871C5.736 15.6871 5.73611 15.6871 5.73623 15.6871C5.73634 15.6871 5.73645 15.6871 5.73656 15.6871C5.73667 15.6871 5.73679 15.6871 5.7369 15.6871C5.73701 15.6871 5.73712 15.6871 5.73724 15.6871C5.73735 15.6871 5.73746 15.6871 5.73757 15.6871C5.73769 15.6871 5.7378 15.6871 5.73791 15.6871C5.73802 15.6871 5.73814 15.6871 5.73825 15.6871C5.73836 15.6871 5.73847 15.6871 5.73859 15.6871C5.7387 15.6871 5.73881 15.6871 5.73892 15.6871C5.73904 15.6871 5.73915 15.6871 5.73926 15.6871C5.73938 15.6871 5.73949 15.6871 5.7396 15.6871C5.73971 15.6871 5.73983 15.6871 5.73994 15.6871C5.74005 15.6871 5.74016 15.6871 5.74028 15.6871C5.74039 15.6871 5.7405 15.6871 5.74062 15.6871C5.74073 15.6871 5.74084 15.6871 5.74095 15.6871C5.74107 15.6871 5.74118 15.6871 5.74129 15.6871C5.74141 15.6871 5.74152 15.6871 5.74163 15.6871C5.74175 15.6871 5.74186 15.6871 5.74197 15.6871C5.74208 15.6871 5.7422 15.6871 5.74231 15.6871C5.74242 15.6871 5.74254 15.6871 5.74265 15.6871C5.74276 15.6871 5.74288 15.6871 5.74299 15.6871C5.7431 15.6871 5.74322 15.6871 5.74333 15.6871C5.74344 15.6871 5.74356 15.6871 5.74367 15.6871C5.74378 15.6871 5.7439 15.6871 5.74401 15.6871C5.74412 15.6871 5.74424 15.6871 5.74435 15.6871C5.74446 15.6871 5.74458 15.6871 5.74469 15.6871C5.7448 15.6871 5.74492 15.6871 5.74503 15.6871C5.74514 15.6871 5.74526 15.6871 5.74537 15.6871C5.74548 15.6871 5.7456 15.6871 5.74571 15.6871C5.74582 15.6871 5.74594 15.6871 5.74605 15.6871C5.74616 15.6871 5.74628 15.6871 5.74639 15.6871C5.7465 15.6871 5.74662 15.6871 5.74673 15.6871C5.74684 15.6871 5.74696 15.6871 5.74707 15.6871C5.74718 15.6871 5.7473 15.6871 5.74741 15.6871C5.74752 15.6871 5.74764 15.6871 5.74775 15.6871C5.74787 15.6871 5.74798 15.6871 5.74809 15.6871C5.74821 15.6871 5.74832 15.6871 5.74843 15.6871C5.74855 15.6871 5.74866 15.6871 5.74878 15.6871C5.74889 15.6871 5.749 15.6871 5.74912 15.6871C5.74923 15.6871 5.74934 15.6871 5.74946 15.6871C5.74957 15.6871 5.74968 15.6871 5.7498 15.6871C5.74991 15.6871 5.75003 15.6871 5.75014 15.6871C5.75025 15.6871 5.75037 15.6871 5.75048 15.6871C5.75059 15.6871 5.75071 15.6871 5.75082 15.6871C5.75094 15.6871 5.75105 15.6871 5.75116 15.6871C5.75128 15.6871 5.75139 15.6871 5.7515 15.6871C5.75162 15.6871 5.75173 15.6871 5.75185 15.6871C5.75196 15.6871 5.75207 15.6871 5.75219 15.6871C5.7523 15.6871 5.75242 15.6871 5.75253 15.6871C5.75264 15.6871 5.75276 15.6871 5.75287 15.6871C5.75298 15.6871 5.7531 15.6871 5.75321 15.6871C5.75333 15.6871 5.75344 15.6871 5.75355 15.6871C5.75367 15.6871 5.75378 15.6871 5.7539 15.6871C5.75401 15.6871 5.75412 15.6871 5.75424 15.6871C5.75435 15.6871 5.75447 15.6871 5.75458 15.6871C5.75469 15.6871 5.75481 15.6871 5.75492 15.6871C5.75503 15.6871 5.75515 15.6871 5.75526 15.6871C5.75538 15.6871 5.75549 15.6871 5.7556 15.6871C5.75572 15.6871 5.75583 15.6871 5.75595 15.6871C5.75606 15.6871 5.75617 15.6871 5.75629 15.6871C5.7564 15.6871 5.75652 15.6871 5.75663 15.6871C5.75674 15.6871 5.75686 15.6871 5.75697 15.6871C5.75709 15.6871 5.7572 15.6871 5.75731 15.6871V3.68709C5.7572 3.68709 5.75709 3.68709 5.75697 3.68709C5.75686 3.68709 5.75674 3.68709 5.75663 3.68709C5.75652 3.68709 5.7564 3.68709 5.75629 3.68709C5.75617 3.68709 5.75606 3.68709 5.75595 3.68709C5.75583 3.68709 5.75572 3.68709 5.7556 3.68709C5.75549 3.68709 5.75538 3.68709 5.75526 3.68709C5.75515 3.68709 5.75503 3.68709 5.75492 3.68709C5.75481 3.68709 5.75469 3.68709 5.75458 3.68709C5.75447 3.68709 5.75435 3.68709 5.75424 3.68709C5.75412 3.68709 5.75401 3.68709 5.7539 3.68709C5.75378 3.68709 5.75367 3.68709 5.75355 3.68709C5.75344 3.68709 5.75333 3.68709 5.75321 3.68709C5.7531 3.68709 5.75298 3.68709 5.75287 3.68709C5.75276 3.68709 5.75264 3.68709 5.75253 3.68709C5.75242 3.68709 5.7523 3.68709 5.75219 3.68709C5.75207 3.68709 5.75196 3.68709 5.75185 3.68709C5.75173 3.68709 5.75162 3.68709 5.7515 3.68709C5.75139 3.68709 5.75128 3.68709 5.75116 3.68709C5.75105 3.68709 5.75094 3.68709 5.75082 3.68709C5.75071 3.68709 5.75059 3.68709 5.75048 3.68709C5.75037 3.68709 5.75025 3.68709 5.75014 3.68709C5.75003 3.68709 5.74991 3.68709 5.7498 3.68709C5.74968 3.68709 5.74957 3.68709 5.74946 3.68709C5.74934 3.68709 5.74923 3.68709 5.74912 3.68709C5.749 3.68709 5.74889 3.68709 5.74878 3.68709C5.74866 3.68709 5.74855 3.68709 5.74843 3.68709C5.74832 3.68709 5.74821 3.68709 5.74809 3.68709C5.74798 3.68709 5.74787 3.68709 5.74775 3.68709C5.74764 3.68709 5.74752 3.68709 5.74741 3.68709C5.7473 3.68709 5.74718 3.68709 5.74707 3.68709C5.74696 3.68709 5.74684 3.68709 5.74673 3.68709C5.74662 3.68709 5.7465 3.68709 5.74639 3.68709C5.74628 3.68709 5.74616 3.68709 5.74605 3.68709C5.74594 3.68709 5.74582 3.68709 5.74571 3.68709C5.7456 3.68709 5.74548 3.68709 5.74537 3.68709C5.74526 3.68709 5.74514 3.68709 5.74503 3.68709C5.74492 3.68709 5.7448 3.68709 5.74469 3.68709C5.74458 3.68709 5.74446 3.68709 5.74435 3.68709C5.74424 3.68709 5.74412 3.68709 5.74401 3.68709C5.7439 3.68709 5.74378 3.68709 5.74367 3.68709C5.74356 3.68709 5.74344 3.68709 5.74333 3.68709C5.74322 3.68709 5.7431 3.68709 5.74299 3.68709C5.74288 3.68709 5.74276 3.68709 5.74265 3.68709C5.74254 3.68709 5.74242 3.68709 5.74231 3.68709C5.7422 3.68709 5.74208 3.68709 5.74197 3.68709C5.74186 3.68709 5.74175 3.68709 5.74163 3.68709C5.74152 3.68709 5.74141 3.68709 5.74129 3.68709C5.74118 3.68709 5.74107 3.68709 5.74095 3.68709C5.74084 3.68709 5.74073 3.68709 5.74062 3.68709C5.7405 3.68709 5.74039 3.68709 5.74028 3.68709C5.74016 3.68709 5.74005 3.68709 5.73994 3.68709C5.73983 3.68709 5.73971 3.68709 5.7396 3.68709C5.73949 3.68709 5.73938 3.68709 5.73926 3.68709C5.73915 3.68709 5.73904 3.68709 5.73892 3.68709C5.73881 3.68709 5.7387 3.68709 5.73859 3.68709C5.73847 3.68709 5.73836 3.68709 5.73825 3.68709C5.73814 3.68709 5.73802 3.68709 5.73791 3.68709C5.7378 3.68709 5.73769 3.68709 5.73757 3.68709C5.73746 3.68709 5.73735 3.68709 5.73724 3.68709C5.73712 3.68709 5.73701 3.68709 5.7369 3.68709C5.73679 3.68709 5.73667 3.68709 5.73656 3.68709C5.73645 3.68709 5.73634 3.68709 5.73623 3.68709C5.73611 3.68709 5.736 3.68709 5.73589 3.68709C5.73578 3.68709 5.73566 3.68709 5.73555 3.68709C5.73544 3.68709 5.73533 3.68709 5.73522 3.68709C5.7351 3.68709 5.73499 3.68709 5.73488 3.68709C5.73477 3.68709 5.73466 3.68709 5.73454 3.68709C5.73443 3.68709 5.73432 3.68709 5.73421 3.68709C5.7341 3.68709 5.73398 3.68709 5.73387 3.68709C5.73376 3.68709 5.73365 3.68709 5.73354 3.68709C5.73343 3.68709 5.73331 3.68709 5.7332 3.68709C5.73309 3.68709 5.73298 3.68709 5.73287 3.68709C5.73276 3.68709 5.73264 3.68709 5.73253 3.68709C5.73242 3.68709 5.73231 3.68709 5.7322 3.68709C5.73209 3.68709 5.73197 3.68709 5.73186 3.68709C5.73175 3.68709 5.73164 3.68709 5.73153 3.68709C5.73142 3.68709 5.73131 3.68709 5.73119 3.68709C5.73108 3.68709 5.73097 3.68709 5.73086 3.68709C5.73075 3.68709 5.73064 3.68709 5.73053 3.68709C5.73042 3.68709 5.7303 3.68709 5.73019 3.68709C5.73008 3.68709 5.72997 3.68709 5.72986 3.68709C5.72975 3.68709 5.72964 3.68709 5.72953 3.68709C5.72942 3.68709 5.7293 3.68709 5.72919 3.68709C5.72908 3.68709 5.72897 3.68709 5.72886 3.68709C5.72875 3.68709 5.72864 3.68709 5.72853 3.68709C5.72842 3.68709 5.72831 3.68709 5.7282 3.68709C5.72809 3.68709 5.72798 3.68709 5.72786 3.68709C5.72775 3.68709 5.72764 3.68709 5.72753 3.68709C5.72742 3.68709 5.72731 3.68709 5.7272 3.68709C5.72709 3.68709 5.72698 3.68709 5.72687 3.68709C5.72676 3.68709 5.72665 3.68709 5.72654 3.68709C5.72643 3.68709 5.72632 3.68709 5.72621 3.68709C5.7261 3.68709 5.72599 3.68709 5.72588 3.68709C5.72577 3.68709 5.72566 3.68709 5.72555 3.68709C5.72544 3.68709 5.72533 3.68709 5.72522 3.68709C5.72511 3.68709 5.725 3.68709 5.72489 3.68709C5.72478 3.68709 5.72467 3.68709 5.72456 3.68709C5.72445 3.68709 5.72434 3.68709 5.72423 3.68709C5.72412 3.68709 5.72401 3.68709 5.7239 3.68709C5.72379 3.68709 5.72368 3.68709 5.72357 3.68709C5.72346 3.68709 5.72335 3.68709 5.72324 3.68709C5.72313 3.68709 5.72302 3.68709 5.72291 3.68709C5.7228 3.68709 5.7227 3.68709 5.72259 3.68709C5.72248 3.68709 5.72237 3.68709 5.72226 3.68709C5.72215 3.68709 5.72204 3.68709 5.72193 3.68709C5.72182 3.68709 5.72171 3.68709 5.7216 3.68709C5.72149 3.68709 5.72139 3.68709 5.72128 3.68709C5.72117 3.68709 5.72106 3.68709 5.72095 3.68709C5.72084 3.68709 5.72073 3.68709 5.72062 3.68709C5.72051 3.68709 5.72041 3.68709 5.7203 3.68709C5.72019 3.68709 5.72008 3.68709 5.71997 3.68709C5.71986 3.68709 5.71975 3.68709 5.71965 3.68709C5.71954 3.68709 5.71943 3.68709 5.71932 3.68709C5.71921 3.68709 5.7191 3.68709 5.719 3.68709C5.71889 3.68709 5.71878 3.68709 5.71867 3.68709C5.71856 3.68709 5.71846 3.68709 5.71835 3.68709C5.71824 3.68709 5.71813 3.68709 5.71802 3.68709C5.71792 3.68709 5.71781 3.68709 5.7177 3.68709C5.71759 3.68709 5.71748 3.68709 5.71738 3.68709C5.71727 3.68709 5.71716 3.68709 5.71705 3.68709C5.71695 3.68709 5.71684 3.68709 5.71673 3.68709C5.71662 3.68709 5.71652 3.68709 5.71641 3.68709C5.7163 3.68709 5.71619 3.68709 5.71609 3.68709C5.71598 3.68709 5.71587 3.68709 5.71576 3.68709C5.71566 3.68709 5.71555 3.68709 5.71544 3.68709C5.71534 3.68709 5.71523 3.68709 5.71512 3.68709C5.71501 3.68709 5.71491 3.68709 5.7148 3.68709C5.71469 3.68709 5.71459 3.68709 5.71448 3.68709C5.71437 3.68709 5.71427 3.68709 5.71416 3.68709C5.71405 3.68709 5.71395 3.68709 5.71384 3.68709C5.71373 3.68709 5.71363 3.68709 5.71352 3.68709C5.71341 3.68709 5.71331 3.68709 5.7132 3.68709C5.7131 3.68709 5.71299 3.68709 5.71288 3.68709C5.71278 3.68709 5.71267 3.68709 5.71256 3.68709C5.71246 3.68709 5.71235 3.68709 5.71225 3.68709C5.71214 3.68709 5.71203 3.68709 5.71193 3.68709C5.71182 3.68709 5.71172 3.68709 5.71161 3.68709C5.71151 3.68709 5.7114 3.68709 5.71129 3.68709C5.71119 3.68709 5.71108 3.68709 5.71098 3.68709C5.71087 3.68709 5.71077 3.68709 5.71066 3.68709C5.71056 3.68709 5.71045 3.68709 5.71035 3.68709C5.71024 3.68709 5.71013 3.68709 5.71003 3.68709C5.70992 3.68709 5.70982 3.68709 5.70971 3.68709C5.70961 3.68709 5.7095 3.68709 5.7094 3.68709C5.70929 3.68709 5.70919 3.68709 5.70908 3.68709C5.70898 3.68709 5.70888 3.68709 5.70877 3.68709C5.70867 3.68709 5.70856 3.68709 5.70846 3.68709C5.70835 3.68709 5.70825 3.68709 5.70814 3.68709C5.70804 3.68709 5.70794 3.68709 5.70783 3.68709C5.70773 3.68709 5.70762 3.68709 5.70752 3.68709C5.70741 3.68709 5.70731 3.68709 5.70721 3.68709C5.7071 3.68709 5.707 3.68709 5.70689 3.68709C5.70679 3.68709 5.70669 3.68709 5.70658 3.68709C5.70648 3.68709 5.70638 3.68709 5.70627 3.68709C5.70617 3.68709 5.70607 3.68709 5.70596 3.68709C5.70586 3.68709 5.70575 3.68709 5.70565 3.68709C5.70555 3.68709 5.70545 3.68709 5.70534 3.68709C5.70524 3.68709 5.70514 3.68709 5.70503 3.68709C5.70493 3.68709 5.70483 3.68709 5.70472 3.68709C5.70462 3.68709 5.70452 3.68709 5.70442 3.68709C5.70431 3.68709 5.70421 3.68709 5.70411 3.68709C5.704 3.68709 5.7039 3.68709 5.7038 3.68709C5.7037 3.68709 5.70359 3.68709 5.70349 3.68709C5.70339 3.68709 5.70329 3.68709 5.70319 3.68709C5.70308 3.68709 5.70298 3.68709 5.70288 3.68709C5.70278 3.68709 5.70267 3.68709 5.70257 3.68709C5.70247 3.68709 5.70237 3.68709 5.70227 3.68709C5.70217 3.68709 5.70206 3.68709 5.70196 3.68709C5.70186 3.68709 5.70176 3.68709 5.70166 3.68709C5.70156 3.68709 5.70146 3.68709 5.70135 3.68709C5.70125 3.68709 5.70115 3.68709 5.70105 3.68709C5.70095 3.68709 5.70085 3.68709 5.70075 3.68709C5.70065 3.68709 5.70054 3.68709 5.70044 3.68709C5.70034 3.68709 5.70024 3.68709 5.70014 3.68709C5.70004 3.68709 5.69994 3.68709 5.69984 3.68709C5.69974 3.68709 5.69964 3.68709 5.69954 3.68709C5.69944 3.68709 5.69934 3.68709 5.69924 3.68709C5.69914 3.68709 5.69904 3.68709 5.69894 3.68709C5.69884 3.68709 5.69874 3.68709 5.69864 3.68709C5.69854 3.68709 5.69844 3.68709 5.69834 3.68709C5.69824 3.68709 5.69814 3.68709 5.69804 3.68709C5.69794 3.68709 5.69784 3.68709 5.69774 3.68709C5.69764 3.68709 5.69754 3.68709 5.69744 3.68709C5.69734 3.68709 5.69724 3.68709 5.69714 3.68709C5.69704 3.68709 5.69694 3.68709 5.69685 3.68709C5.69675 3.68709 5.69665 3.68709 5.69655 3.68709C5.69645 3.68709 5.69635 3.68709 5.69625 3.68709C5.69615 3.68709 5.69605 3.68709 5.69596 3.68709C5.69586 3.68709 5.69576 3.68709 5.69566 3.68709C5.69556 3.68709 5.69546 3.68709 5.69537 3.68709C5.69527 3.68709 5.69517 3.68709 5.69507 3.68709C5.69497 3.68709 5.69488 3.68709 5.69478 3.68709C5.69468 3.68709 5.69458 3.68709 5.69448 3.68709C5.69439 3.68709 5.69429 3.68709 5.69419 3.68709C5.69409 3.68709 5.694 3.68709 5.6939 3.68709C5.6938 3.68709 5.69371 3.68709 5.69361 3.68709C5.69351 3.68709 5.69341 3.68709 5.69332 3.68709C5.69322 3.68709 5.69312 3.68709 5.69303 3.68709C5.69293 3.68709 5.69283 3.68709 5.69274 3.68709C5.69264 3.68709 5.69254 3.68709 5.69245 3.68709C5.69235 3.68709 5.69225 3.68709 5.69216 3.68709C5.69206 3.68709 5.69196 3.68709 5.69187 3.68709C5.69177 3.68709 5.69168 3.68709 5.69158 3.68709C5.69148 3.68709 5.69139 3.68709 5.69129 3.68709C5.6912 3.68709 5.6911 3.68709 5.691 3.68709C5.69091 3.68709 5.69081 3.68709 5.69072 3.68709C5.69062 3.68709 5.69053 3.68709 5.69043 3.68709C5.69034 3.68709 5.69024 3.68709 5.69015 3.68709C5.69005 3.68709 5.68996 3.68709 5.68986 3.68709C5.68977 3.68709 5.68967 3.68709 5.68958 3.68709C5.68948 3.68709 5.68939 3.68709 5.68929 3.68709C5.6892 3.68709 5.6891 3.68709 5.68901 3.68709C5.68892 3.68709 5.68882 3.68709 5.68873 3.68709C5.68863 3.68709 5.68854 3.68709 5.68845 3.68709C5.68835 3.68709 5.68826 3.68709 5.68816 3.68709C5.68807 3.68709 5.68798 3.68709 5.68788 3.68709C5.68779 3.68709 5.6877 3.68709 5.6876 3.68709C5.68751 3.68709 5.68742 3.68709 5.68732 3.68709C5.68723 3.68709 5.68714 3.68709 5.68704 3.68709C5.68695 3.68709 5.68686 3.68709 5.68676 3.68709C5.68667 3.68709 5.68658 3.68709 5.68649 3.68709C5.68639 3.68709 5.6863 3.68709 5.68621 3.68709C5.68612 3.68709 5.68602 3.68709 5.68593 3.68709C5.68584 3.68709 5.68575 3.68709 5.68565 3.68709C5.68556 3.68709 5.68547 3.68709 5.68538 3.68709C5.68529 3.68709 5.68519 3.68709 5.6851 3.68709C5.68501 3.68709 5.68492 3.68709 5.68483 3.68709C5.68474 3.68709 5.68465 3.68709 5.68455 3.68709C5.68446 3.68709 5.68437 3.68709 5.68428 3.68709C5.68419 3.68709 5.6841 3.68709 5.68401 3.68709C5.68392 3.68709 5.68383 3.68709 5.68374 3.68709C5.68364 3.68709 5.68355 3.68709 5.68346 3.68709C5.68337 3.68709 5.68328 3.68709 5.68319 3.68709C5.6831 3.68709 5.68301 3.68709 5.68292 3.68709C5.68283 3.68709 5.68274 3.68709 5.68265 3.68709C5.68256 3.68709 5.68247 3.68709 5.68238 3.68709C5.68229 3.68709 5.6822 3.68709 5.68211 3.68709C5.68202 3.68709 5.68194 3.68709 5.68185 3.68709C5.68176 3.68709 5.68167 3.68709 5.68158 3.68709C5.68149 3.68709 5.6814 3.68709 5.68131 3.68709C5.68122 3.68709 5.68113 3.68709 5.68105 3.68709C5.68096 3.68709 5.68087 3.68709 5.68078 3.68709C5.68069 3.68709 5.6806 3.68709 5.68051 3.68709C5.68043 3.68709 5.68034 3.68709 5.68025 3.68709C5.68016 3.68709 5.68007 3.68709 5.67999 3.68709C5.6799 3.68709 5.67981 3.68709 5.67972 3.68709C5.67964 3.68709 5.67955 3.68709 5.67946 3.68709C5.67937 3.68709 5.67929 3.68709 5.6792 3.68709C5.67911 3.68709 5.67903 3.68709 5.67894 3.68709C5.67885 3.68709 5.67876 3.68709 5.67868 3.68709C5.67859 3.68709 5.6785 3.68709 5.67842 3.68709C5.67833 3.68709 5.67825 3.68709 5.67816 3.68709C5.67807 3.68709 5.67799 3.68709 5.6779 3.68709C5.67781 3.68709 5.67773 3.68709 5.67764 3.68709C5.67756 3.68709 5.67747 3.68709 5.67739 3.68709C5.6773 3.68709 5.67721 3.68709 5.67713 3.68709C5.67704 3.68709 5.67696 3.68709 5.67687 3.68709C5.67679 3.68709 5.6767 3.68709 5.67662 3.68709C5.67653 3.68709 5.67645 3.68709 5.67636 3.68709C5.67628 3.68709 5.67619 3.68709 5.67611 3.68709C5.67602 3.68709 5.67594 3.68709 5.67586 3.68709C5.67577 3.68709 5.67569 3.68709 5.6756 3.68709C5.67552 3.68709 5.67544 3.68709 5.67535 3.68709C5.67527 3.68709 5.67518 3.68709 5.6751 3.68709C5.67502 3.68709 5.67493 3.68709 5.67485 3.68709C5.67477 3.68709 5.67468 3.68709 5.6746 3.68709C5.67452 3.68709 5.67443 3.68709 5.67435 3.68709C5.67427 3.68709 5.67419 3.68709 5.6741 3.68709C5.67402 3.68709 5.67394 3.68709 5.67386 3.68709C5.67377 3.68709 5.67369 3.68709 5.67361 3.68709C5.67353 3.68709 5.67344 3.68709 5.67336 3.68709C5.67328 3.68709 5.6732 3.68709 5.67312 3.68709C5.67304 3.68709 5.67295 3.68709 5.67287 3.68709C5.67279 3.68709 5.67271 3.68709 5.67263 3.68709C5.67255 3.68709 5.67247 3.68709 5.67239 3.68709C5.6723 3.68709 5.67222 3.68709 5.67214 3.68709C5.67206 3.68709 5.67198 3.68709 5.6719 3.68709C5.67182 3.68709 5.67174 3.68709 5.67166 3.68709C5.67158 3.68709 5.6715 3.68709 5.67142 3.68709C5.67134 3.68709 5.67126 3.68709 5.67118 3.68709C5.6711 3.68709 5.67102 3.68709 5.67094 3.68709C5.67086 3.68709 5.67078 3.68709 5.6707 3.68709C5.67062 3.68709 5.67054 3.68709 5.67046 3.68709C5.67038 3.68709 5.67031 3.68709 5.67023 3.68709C5.67015 3.68709 5.67007 3.68709 5.66999 3.68709C5.66991 3.68709 5.66983 3.68709 5.66976 3.68709C5.66968 3.68709 5.6696 3.68709 5.66952 3.68709C5.66944 3.68709 5.66936 3.68709 5.66929 3.68709C5.66921 3.68709 5.66913 3.68709 5.66905 3.68709C5.66898 3.68709 5.6689 3.68709 5.66882 3.68709C5.66874 3.68709 5.66867 3.68709 5.66859 3.68709C5.66851 3.68709 5.66844 3.68709 5.66836 3.68709C5.66828 3.68709 5.66821 3.68709 5.66813 3.68709C5.66805 3.68709 5.66798 3.68709 5.6679 3.68709C5.66782 3.68709 5.66775 3.68709 5.66767 3.68709C5.6676 3.68709 5.66752 3.68709 5.66744 3.68709C5.66737 3.68709 5.66729 3.68709 5.66722 3.68709C5.66714 3.68709 5.66707 3.68709 5.66699 3.68709C5.66691 3.68709 5.66684 3.68709 5.66676 3.68709C5.66669 3.68709 5.66662 3.68709 5.66654 3.68709C5.66647 3.68709 5.66639 3.68709 5.66632 3.68709C5.66624 3.68709 5.66617 3.68709 5.66609 3.68709C5.66602 3.68709 5.66595 3.68709 5.66587 3.68709C5.6658 3.68709 5.66572 3.68709 5.66565 3.68709C5.66558 3.68709 5.6655 3.68709 5.66543 3.68709C5.66536 3.68709 5.66528 3.68709 5.66521 3.68709C5.66514 3.68709 5.66506 3.68709 5.66499 3.68709C5.66492 3.68709 5.66484 3.68709 5.66477 3.68709C5.6647 3.68709 5.66463 3.68709 5.66455 3.68709C5.66448 3.68709 5.66441 3.68709 5.66434 3.68709C5.66426 3.68709 5.66419 3.68709 5.66412 3.68709C5.66405 3.68709 5.66398 3.68709 5.66391 3.68709C5.66383 3.68709 5.66376 3.68709 5.66369 3.68709C5.66362 3.68709 5.66355 3.68709 5.66348 3.68709C5.66341 3.68709 5.66334 3.68709 5.66327 3.68709C5.66319 3.68709 5.66312 3.68709 5.66305 3.68709C5.66298 3.68709 5.66291 3.68709 5.66284 3.68709C5.66277 3.68709 5.6627 3.68709 5.66263 3.68709C5.66256 3.68709 5.66249 3.68709 5.66242 3.68709C5.66235 3.68709 5.66228 3.68709 5.66221 3.68709C5.66215 3.68709 5.66208 3.68709 5.66201 3.68709C5.66194 3.68709 5.66187 3.68709 5.6618 3.68709C5.66173 3.68709 5.66166 3.68709 5.66159 3.68709C5.66153 3.68709 5.66146 3.68709 5.66139 3.68709C5.66132 3.68709 5.66125 3.68709 5.66118 3.68709C5.66112 3.68709 5.66105 3.68709 5.66098 3.68709C5.66091 3.68709 5.66085 3.68709 5.66078 3.68709C5.66071 3.68709 5.66064 3.68709 5.66058 3.68709C5.66051 3.68709 5.66044 3.68709 5.66038 3.68709C5.66031 3.68709 5.66024 3.68709 5.66018 3.68709C5.66011 3.68709 5.66004 3.68709 5.65998 3.68709C5.65991 3.68709 5.65984 3.68709 5.65978 3.68709C5.65971 3.68709 5.65965 3.68709 5.65958 3.68709C5.65951 3.68709 5.65945 3.68709 5.65938 3.68709C5.65932 3.68709 5.65925 3.68709 5.65919 3.68709C5.65912 3.68709 5.65906 3.68709 5.65899 3.68709C5.65893 3.68709 5.65886 3.68709 5.6588 3.68709C5.65873 3.68709 5.65867 3.68709 5.65861 3.68709C5.65854 3.68709 5.65848 3.68709 5.65841 3.68709C5.65835 3.68709 5.65829 3.68709 5.65822 3.68709C5.65816 3.68709 5.6581 3.68709 5.65803 3.68709C5.65797 3.68709 5.65791 3.68709 5.65784 3.68709C5.65778 3.68709 5.65772 3.68709 5.65765 3.68709C5.65759 3.68709 5.65753 3.68709 5.65747 3.68709C5.6574 3.68709 5.65734 3.68709 5.65728 3.68709C5.65722 3.68709 5.65715 3.68709 5.65709 3.68709C5.65703 3.68709 5.65697 3.68709 5.65691 3.68709C5.65685 3.68709 5.65679 3.68709 5.65672 3.68709C5.65666 3.68709 5.6566 3.68709 5.65654 3.68709C5.65648 3.68709 5.65642 3.68709 5.65636 3.68709C5.6563 3.68709 5.65624 3.68709 5.65618 3.68709C5.65612 3.68709 5.65606 3.68709 5.656 3.68709C5.65594 3.68709 5.65588 3.68709 5.65582 3.68709C5.65576 3.68709 5.6557 3.68709 5.65564 3.68709C5.65558 3.68709 5.65552 3.68709 5.65546 3.68709C5.6554 3.68709 5.65534 3.68709 5.65528 3.68709C5.65522 3.68709 5.65517 3.68709 5.65511 3.68709C5.65505 3.68709 5.65499 3.68709 5.65493 3.68709C5.65487 3.68709 5.65482 3.68709 5.65476 3.68709C5.6547 3.68709 5.65464 3.68709 5.65458 3.68709C5.65453 3.68709 5.65447 3.68709 5.65441 3.68709C5.65436 3.68709 5.6543 3.68709 5.65424 3.68709C5.65418 3.68709 5.65413 3.68709 5.65407 3.68709C5.65401 3.68709 5.65396 3.68709 5.6539 3.68709C5.65385 3.68709 5.65379 3.68709 5.65373 3.68709C5.65368 3.68709 5.65362 3.68709 5.65357 3.68709C5.65351 3.68709 5.65345 3.68709 5.6534 3.68709C5.65334 3.68709 5.65329 3.68709 5.65323 3.68709C5.65318 3.68709 5.65312 3.68709 5.65307 3.68709C5.65301 3.68709 5.65296 3.68709 5.65291 3.68709C5.65285 3.68709 5.6528 3.68709 5.65274 3.68709C5.65269 3.68709 5.65263 3.68709 5.65258 3.68709C5.65253 3.68709 5.65247 3.68709 5.65242 3.68709C5.65237 3.68709 5.65231 3.68709 5.65226 3.68709C5.65221 3.68709 5.65215 3.68709 5.6521 3.68709C5.65205 3.68709 5.652 3.68709 5.65194 3.68709C5.65189 3.68709 5.65184 3.68709 5.65179 3.68709C5.65173 3.68709 5.65168 3.68709 5.65163 3.68709C5.65158 3.68709 5.65153 3.68709 5.65148 3.68709C5.65142 3.68709 5.65137 3.68709 5.65132 3.68709C5.65127 3.68709 5.65122 3.68709 5.65117 3.68709C5.65112 3.68709 5.65107 3.68709 5.65102 3.68709C5.65097 3.68709 5.65092 3.68709 5.65087 3.68709C5.65082 3.68709 5.65077 3.68709 5.65072 3.68709C5.65067 3.68709 5.65062 3.68709 5.65057 3.68709C5.65052 3.68709 5.65047 3.68709 5.65042 3.68709C5.65037 3.68709 5.65032 3.68709 5.65027 3.68709C5.65022 3.68709 5.65018 3.68709 5.65013 3.68709C5.65008 3.68709 5.65003 3.68709 5.64998 3.68709C5.64993 3.68709 5.64989 3.68709 5.64984 3.68709C5.64979 3.68709 5.64974 3.68709 5.6497 3.68709C5.64965 3.68709 5.6496 3.68709 5.64955 3.68709C5.64951 3.68709 5.64946 3.68709 5.64941 3.68709C5.64937 3.68709 5.64932 3.68709 5.64927 3.68709C5.64923 3.68709 5.64918 3.68709 5.64913 3.68709C5.64909 3.68709 5.64904 3.68709 5.649 3.68709C5.64895 3.68709 5.64891 3.68709 5.64886 3.68709C5.64881 3.68709 5.64877 3.68709 5.64872 3.68709C5.64868 3.68709 5.64863 3.68709 5.64859 3.68709C5.64854 3.68709 5.6485 3.68709 5.64846 3.68709C5.64841 3.68709 5.64837 3.68709 5.64832 3.68709C5.64828 3.68709 5.64824 3.68709 5.64819 3.68709C5.64815 3.68709 5.64811 3.68709 5.64806 3.68709C5.64802 3.68709 5.64797 3.68709 5.64793 3.68709C5.64789 3.68709 5.64785 3.68709 5.6478 3.68709C5.64776 3.68709 5.64772 3.68709 5.64768 3.68709C5.64763 3.68709 5.64759 3.68709 5.64755 3.68709C5.64751 3.68709 5.64747 3.68709 5.64743 3.68709C5.64738 3.68709 5.64734 3.68709 5.6473 3.68709C5.64726 3.68709 5.64722 3.68709 5.64718 3.68709C5.64714 3.68709 5.6471 3.68709 5.64706 3.68709C5.64702 3.68709 5.64698 3.68709 5.64693 3.68709C5.64689 3.68709 5.64685 3.68709 5.64682 3.68709C5.64678 3.68709 5.64674 3.68709 5.6467 3.68709C5.64666 3.68709 5.64662 3.68709 5.64658 3.68709C5.64654 3.68709 5.6465 3.68709 5.64646 3.68709C5.64642 3.68709 5.64639 3.68709 5.64635 3.68709C5.64631 3.68709 5.64627 3.68709 5.64623 3.68709C5.64619 3.68709 5.64616 3.68709 5.64612 3.68709C5.64608 3.68709 5.64604 3.68709 5.64601 3.68709C5.64597 3.68709 5.64593 3.68709 5.6459 3.68709C5.64586 3.68709 5.64582 3.68709 5.64579 3.68709C5.64575 3.68709 5.64571 3.68709 5.64568 3.68709C5.64564 3.68709 5.6456 3.68709 5.64557 3.68709C5.64553 3.68709 5.6455 3.68709 5.64546 3.68709C5.64543 3.68709 5.64539 3.68709 5.64536 3.68709C5.64532 3.68709 5.64529 3.68709 5.64525 3.68709C5.64522 3.68709 5.64518 3.68709 5.64515 3.68709C5.64511 3.68709 5.64508 3.68709 5.64505 3.68709C5.64501 3.68709 5.64498 3.68709 5.64495 3.68709C5.64491 3.68709 5.64488 3.68709 5.64485 3.68709C5.64481 3.68709 5.64478 3.68709 5.64475 3.68709C5.64471 3.68709 5.64468 3.68709 5.64465 3.68709C5.64462 3.68709 5.64458 3.68709 5.64455 3.68709C5.64452 3.68709 5.64449 3.68709 5.64446 3.68709C5.64442 3.68709 5.64439 3.68709 5.64436 3.68709C5.64433 3.68709 5.6443 3.68709 5.64427 3.68709C5.64424 3.68709 5.64421 3.68709 5.64418 3.68709C5.64415 3.68709 5.64412 3.68709 5.64408 3.68709C5.64405 3.68709 5.64402 3.68709 5.644 3.68709C5.64397 3.68709 5.64394 3.68709 5.64391 3.68709C5.64388 3.68709 5.64385 3.68709 5.64382 3.68709C5.64379 3.68709 5.64376 3.68709 5.64373 3.68709C5.6437 3.68709 5.64368 3.68709 5.64365 3.68709C5.64362 3.68709 5.64359 3.68709 5.64356 3.68709C5.64354 3.68709 5.64351 3.68709 5.64348 3.68709C5.64345 3.68709 5.64343 3.68709 5.6434 3.68709C5.64337 3.68709 5.64334 3.68709 5.64332 3.68709C5.64329 3.68709 5.64326 3.68709 5.64324 3.68709C5.64321 3.68709 5.64319 3.68709 5.64316 3.68709C5.64313 3.68709 5.64311 3.68709 5.64308 3.68709C5.64306 3.68709 5.64303 3.68709 5.64301 3.68709C5.64298 3.68709 5.64296 3.68709 5.64293 3.68709C5.64291 3.68709 5.64288 3.68709 5.64286 3.68709C5.64283 3.68709 5.64281 3.68709 5.64279 3.68709C5.64276 3.68709 5.64274 3.68709 5.64271 3.68709C5.64269 3.68709 5.64267 3.68709 5.64265 3.68709C5.64262 3.68709 5.6426 3.68709 5.64258 3.68709C5.64255 3.68709 5.64253 3.68709 5.64251 3.68709C5.64249 3.68709 5.64246 3.68709 5.64244 3.68709C5.64242 3.68709 5.6424 3.68709 5.64238 3.68709C5.64236 3.68709 5.64233 3.68709 5.64231 3.68709C5.64229 3.68709 5.64227 3.68709 5.64225 3.68709C5.64223 3.68709 5.64221 3.68709 5.64219 3.68709C5.64217 3.68709 5.64215 3.68709 5.64213 3.68709C5.64211 3.68709 5.64209 3.68709 5.64207 3.68709C5.64205 3.68709 5.64203 3.68709 5.64201 3.68709C5.64199 3.68709 5.64197 3.68709 5.64195 3.68709C5.64194 3.68709 5.64192 3.68709 5.6419 3.68709C5.64188 3.68709 5.64186 3.68709 5.64184 3.68709C5.64183 3.68709 5.64181 3.68709 5.64179 3.68709C5.64177 3.68709 5.64176 3.68709 5.64174 3.68709C5.64172 3.68709 5.64171 3.68709 5.64169 3.68709C5.64167 3.68709 5.64166 3.68709 5.64164 3.68709C5.64162 3.68709 5.64161 3.68709 5.64159 3.68709C5.64158 3.68709 5.64156 3.68709 5.64154 3.68709C5.64153 3.68709 5.64151 3.68709 5.6415 3.68709C5.64148 3.68709 5.64147 3.68709 5.64145 3.68709C5.64144 3.68709 5.64142 3.68709 5.64141 3.68709C5.6414 3.68709 5.64138 3.68709 5.64137 3.68709C5.64136 3.68709 5.64134 3.68709 5.64133 3.68709C5.64131 3.68709 5.6413 3.68709 5.64129 3.68709C5.64128 3.68709 5.64126 3.68709 5.64125 3.68709C5.64124 3.68709 5.64123 3.68709 5.64121 3.68709C5.6412 3.68709 5.64119 3.68709 5.64118 3.68709C5.64117 3.68709 5.64115 3.68709 5.64114 3.68709C5.64113 3.68709 5.64112 3.68709 5.64111 3.68709C5.6411 3.68709 5.64109 3.68709 5.64108 3.68709C5.64107 3.68709 5.64106 3.68709 5.64105 3.68709C5.64104 3.68709 5.64103 3.68709 5.64102 3.68709C5.64101 3.68709 5.641 3.68709 5.64099 3.68709C5.64098 3.68709 5.64097 3.68709 5.64096 3.68709C5.64095 3.68709 5.64095 3.68709 5.64094 3.68709C5.64093 3.68709 5.64092 3.68709 5.64091 3.68709C5.64091 3.68709 5.6409 3.68709 5.64089 3.68709C5.64088 3.68709 5.64088 3.68709 5.64087 3.68709C5.64086 3.68709 5.64086 3.68709 5.64085 3.68709C5.64084 3.68709 5.64084 3.68709 5.64083 3.68709C5.64082 3.68709 5.64082 3.68709 5.64081 3.68709C5.64081 3.68709 5.6408 3.68709 5.6408 3.68709C5.64079 3.68709 5.64079 3.68709 5.64078 3.68709C5.64078 3.68709 5.64077 3.68709 5.64077 3.68709C5.64076 3.68709 5.64076 3.68709 5.64075 3.68709C5.64075 3.68709 5.64075 3.68709 5.64074 3.68709C5.64074 3.68709 5.64074 3.68709 5.64073 3.68709C5.64073 3.68709 5.64073 3.68709 5.64072 3.68709C5.64072 3.68709 5.64072 3.68709 5.64072 3.68709C5.64071 3.68709 5.64071 3.68709 5.64071 3.68709C5.64071 3.68709 5.64071 3.68709 5.64071 3.68709C5.6407 3.68709 5.6407 3.68709 5.6407 3.68709C5.6407 3.68709 5.6407 3.68709 5.6407 3.68709C5.6407 3.68709 5.6407 3.68709 5.6407 9.68709ZM5.75731 15.6871C8.59072 15.6871 11.2033 14.5335 13.1479 12.5889L4.66262 4.10364C4.74719 4.01906 4.8896 3.90931 5.0953 3.82196C5.30259 3.73393 5.53163 3.68709 5.75731 3.68709V15.6871ZM13.1479 12.5889C15.0718 10.665 16.3043 8.00122 16.3043 5.02344H4.30435C4.30435 4.61061 4.48757 4.27869 4.66262 4.10364L13.1479 12.5889ZM16.2976 5.30872C16.4481 2.146 15.0867 -0.603247 13.2062 -2.48376L4.72089 6.00152C4.58924 5.86987 4.27713 5.45248 4.31114 4.73816L16.2976 5.30872ZM13.3407 -2.34482C11.2712 -4.55224 8.49056 -5.64014 5.69897 -5.64014V6.35986C5.54644 6.35986 5.34898 6.3299 5.13422 6.23948C4.91476 6.14709 4.72619 6.01173 4.58636 5.86258L13.3407 -2.34482ZM3.84646 3.28755C4.1833 2.95071 4.91852 2.46441 6.01483 2.53291L5.26657 14.5096C8.22828 14.6946 10.7124 13.3922 12.3317 11.7728L3.84646 3.28755ZM5.6407 2.52123C5.98554 2.52123 6.28287 2.58643 6.54086 2.68874C6.8004 2.79166 7.11973 2.97234 7.43494 3.28755L-1.05034 11.7728C0.80727 13.6304 3.30865 14.5212 5.6407 14.5212V2.52123ZM7.24672 3.10734C7.96198 3.76301 8.14298 4.52757 8.14298 5.02351H-3.85702C-3.85702 7.38486 -2.97647 10.0148 -0.86213 11.953L7.24672 3.10734ZM8.14298 5.02351C8.14298 5.31584 8.08623 5.6462 7.9494 5.97686C7.81213 6.30861 7.62285 6.57157 7.43494 6.75948L-1.05034 -1.7258C-2.87729 0.101139 -3.85702 2.5026 -3.85702 5.02351H8.14298ZM7.43494 6.75948C6.85986 7.33455 6.16562 7.52579 5.69897 7.52579V-4.47421C3.25038 -4.47421 0.807271 -3.58342 -1.05034 -1.7258L7.43494 6.75948ZM5.69897 7.52579C5.00806 7.52579 4.34863 7.26165 3.84646 6.75948L12.3317 -1.7258C10.547 -3.51052 8.13874 -4.47421 5.69897 -4.47421V7.52579ZM3.84646 6.75948C3.65855 6.57157 3.46927 6.30861 3.332 5.97686C3.19517 5.6462 3.13842 5.31584 3.13842 5.02351H15.1384C15.1384 2.5026 14.1587 0.10114 12.3317 -1.7258L3.84646 6.75948ZM3.13842 5.02351C3.13842 4.52757 3.31943 3.76301 4.03468 3.10734L12.1435 11.953C14.2579 10.0148 15.1384 7.38486 15.1384 5.02351H3.13842Z" fill="#8AD2FB" mask="url(#path-1-inside-1)"/>
<mask id="path-3-inside-2" fill="white">
<path d="M7.97257 10.8532H3.25065C2.31794 10.8532 1.56006 11.611 1.56006 12.602V33.0054C1.56006 33.9381 2.37622 34.7543 3.30892 34.7543H7.97257C8.90527 34.7543 9.72143 33.9381 9.72143 33.0637V12.602C9.72143 11.6693 8.90527 10.8532 7.97257 10.8532ZM8.5555 33.0637C8.5555 33.3552 8.264 33.5884 7.97257 33.5884H3.30892C3.01742 33.5884 2.72599 33.2969 2.72599 33.0054V12.602C2.72599 12.3105 2.95915 12.0191 3.25065 12.0191H7.97257C8.26407 12.0191 8.5555 12.3106 8.5555 12.602V33.0637Z"/>
</mask>
<path d="M7.97257 10.8532H3.25065C2.31794 10.8532 1.56006 11.611 1.56006 12.602V33.0054C1.56006 33.9381 2.37622 34.7543 3.30892 34.7543H7.97257C8.90527 34.7543 9.72143 33.9381 9.72143 33.0637V12.602C9.72143 11.6693 8.90527 10.8532 7.97257 10.8532ZM8.5555 33.0637C8.5555 33.3552 8.264 33.5884 7.97257 33.5884H3.30892C3.01742 33.5884 2.72599 33.2969 2.72599 33.0054V12.602C2.72599 12.3105 2.95915 12.0191 3.25065 12.0191H7.97257C8.26407 12.0191 8.5555 12.3106 8.5555 12.602V33.0637Z" fill="#8AD2FB"/>
<path d="M7.97257 4.85318H3.25065V16.8532H7.97257V4.85318ZM3.25065 4.85318C-1.12787 4.85318 -4.43994 8.43095 -4.43994 12.602H7.56006C7.56006 14.791 5.76375 16.8532 3.25065 16.8532V4.85318ZM-4.43994 12.602V33.0054H7.56006V12.602H-4.43994ZM-4.43994 33.0054C-4.43994 37.2518 -0.937494 40.7543 3.30892 40.7543V28.7543C4.60813 28.7543 5.6523 29.3119 6.32737 29.987C7.00244 30.6621 7.56006 31.7062 7.56006 33.0054H-4.43994ZM3.30892 40.7543H7.97257V28.7543H3.30892V40.7543ZM7.97257 40.7543C12.0883 40.7543 15.7214 37.3811 15.7214 33.0637H3.72143C3.72143 31.6354 4.36082 30.5735 5.00314 29.9458C5.65936 29.3045 6.68086 28.7543 7.97257 28.7543V40.7543ZM15.7214 33.0637V12.602H3.72143V33.0637H15.7214ZM15.7214 12.602C15.7214 8.35541 12.2188 4.85318 7.97257 4.85318V16.8532C6.67351 16.8532 5.62934 16.2957 4.95418 15.6205C4.279 14.9454 3.72143 13.9011 3.72143 12.602H15.7214ZM2.5555 33.0637C2.5555 31.1244 3.52331 29.6989 4.44381 28.9011C5.34723 28.1182 6.57462 27.5884 7.97257 27.5884V39.5884C9.66195 39.5884 11.1808 38.9419 12.3028 37.9695C13.4419 36.9823 14.5555 35.2945 14.5555 33.0637H2.5555ZM7.97257 27.5884H3.30892V39.5884H7.97257V27.5884ZM3.30892 27.5884C5.11467 27.5884 6.41816 28.4309 7.15094 29.1637C7.88366 29.8965 8.72599 31.1999 8.72599 33.0054H-3.27401C-3.27401 35.1024 -2.28597 36.6973 -1.33466 37.6487C-0.38329 38.6001 1.21167 39.5884 3.30892 39.5884V27.5884ZM8.72599 33.0054V12.602H-3.27401V33.0054H8.72599ZM8.72599 12.602C8.72599 13.9997 8.19628 15.2273 7.41304 16.131C6.61501 17.0517 5.18947 18.0191 3.25065 18.0191V6.01911C1.02032 6.01911 -0.667546 7.13222 -1.65503 8.27157C-2.62773 9.39385 -3.27401 10.9128 -3.27401 12.602H8.72599ZM3.25065 18.0191H7.97257V6.01911H3.25065V18.0191ZM7.97257 18.0191C6.16682 18.0191 4.86332 17.1766 4.13054 16.4438C3.39782 15.711 2.5555 14.4076 2.5555 12.602H14.5555C14.5555 10.505 13.5675 8.91019 12.6161 7.95881C11.6648 7.00736 10.0698 6.01911 7.97257 6.01911V18.0191ZM2.5555 12.602V33.0637H14.5555V12.602H2.5555Z" fill="#8AD2FB" mask="url(#path-3-inside-2)"/>
<mask id="path-5-inside-3" fill="white">
<path d="M27.7928 10.2701H26.5686C24.2951 10.2701 22.1382 11.2612 20.7391 12.8352V12.019C20.7391 11.4361 20.1562 10.8531 19.5732 10.8531H13.7437C13.219 10.8531 12.5778 11.3195 12.5778 11.9607V33.7048C12.5778 34.3461 13.219 34.7541 13.7437 34.7541H20.1562C20.6809 34.7541 21.3221 34.3461 21.3221 33.7048V21.113C21.3221 19.1893 22.7212 17.6736 24.5283 17.6736C25.4611 17.6736 26.3355 18.0233 26.9768 18.6646C27.5597 19.1893 27.7929 20.0054 27.7929 21.0547V33.5883C27.7929 34.1712 28.3758 34.7542 28.9588 34.7542H34.7883C35.3713 34.7542 35.9543 34.1713 35.9543 33.5883V18.5481C35.9542 13.8845 32.3982 10.2701 27.7928 10.2701ZM34.7883 33.53L34.73 33.5883H29.017L28.9588 21.0548C28.9588 19.6557 28.609 18.6064 27.8512 17.8486C26.9768 16.9742 25.8108 16.5078 24.5866 16.5078C22.1382 16.566 20.2145 18.5481 20.2145 21.1131V33.5883H13.802V12.019H19.5732L19.6315 12.0773V15.7499L21.2054 14.1759L21.2637 14.1176C22.4296 12.4854 24.4699 11.4361 26.6269 11.4361H27.8511C31.7569 11.4361 34.7883 14.584 34.7883 18.5481V33.53Z"/>
</mask>
<path d="M27.7928 10.2701H26.5686C24.2951 10.2701 22.1382 11.2612 20.7391 12.8352V12.019C20.7391 11.4361 20.1562 10.8531 19.5732 10.8531H13.7437C13.219 10.8531 12.5778 11.3195 12.5778 11.9607V33.7048C12.5778 34.3461 13.219 34.7541 13.7437 34.7541H20.1562C20.6809 34.7541 21.3221 34.3461 21.3221 33.7048V21.113C21.3221 19.1893 22.7212 17.6736 24.5283 17.6736C25.4611 17.6736 26.3355 18.0233 26.9768 18.6646C27.5597 19.1893 27.7929 20.0054 27.7929 21.0547V33.5883C27.7929 34.1712 28.3758 34.7542 28.9588 34.7542H34.7883C35.3713 34.7542 35.9543 34.1713 35.9543 33.5883V18.5481C35.9542 13.8845 32.3982 10.2701 27.7928 10.2701ZM34.7883 33.53L34.73 33.5883H29.017L28.9588 21.0548C28.9588 19.6557 28.609 18.6064 27.8512 17.8486C26.9768 16.9742 25.8108 16.5078 24.5866 16.5078C22.1382 16.566 20.2145 18.5481 20.2145 21.1131V33.5883H13.802V12.019H19.5732L19.6315 12.0773V15.7499L21.2054 14.1759L21.2637 14.1176C22.4296 12.4854 24.4699 11.4361 26.6269 11.4361H27.8511C31.7569 11.4361 34.7883 14.584 34.7883 18.5481V33.53Z" fill="#8AD2FB"/>
<path d="M20.7391 12.8352H14.7391V28.6164L25.2236 16.8213L20.7391 12.8352ZM26.9768 18.6646L22.7341 22.9072L22.8456 23.0188L22.9629 23.1243L26.9768 18.6646ZM35.9543 18.5481H41.9543V18.548L35.9543 18.5481ZM34.73 33.5883V39.5883H37.2153L38.9726 37.8309L34.73 33.5883ZM29.017 33.5883L23.0171 33.6161L23.0449 39.5883H29.017V33.5883ZM28.9588 21.0548H22.9588V21.0688L22.9588 21.0827L28.9588 21.0548ZM24.5866 16.5078V10.5078H24.5152L24.4439 10.5095L24.5866 16.5078ZM20.2145 33.5883V39.5883H26.2145V33.5883H20.2145ZM13.802 33.5883H7.80196V39.5883H13.802V33.5883ZM13.802 12.019V6.019H7.80196V12.019H13.802ZM19.5732 12.019L23.8158 7.77636L22.0585 6.019H19.5732V12.019ZM19.6315 12.0773H25.6315V9.59199L23.8741 7.83463L19.6315 12.0773ZM19.6315 15.7499H13.6315V30.2352L23.8741 19.9925L19.6315 15.7499ZM21.2054 14.1759L16.9629 9.93319L16.9628 9.93327L21.2054 14.1759ZM21.2637 14.1176L25.5063 18.3604L25.8574 18.0092L26.1461 17.6051L21.2637 14.1176ZM27.7928 4.27014H26.5686V16.2701H27.7928V4.27014ZM26.5686 4.27014C22.6092 4.27014 18.8108 5.97338 16.2547 8.84898L25.2236 16.8213C25.4657 16.549 25.9811 16.2701 26.5686 16.2701V4.27014ZM26.7391 12.8352V12.019H14.7391V12.8352H26.7391ZM26.7391 12.019C26.7391 9.77621 25.6782 8.03558 24.6175 6.97488C23.5568 5.91416 21.8161 4.85307 19.5732 4.85307V16.8531C17.9133 16.8531 16.7555 16.0835 16.1321 15.46C15.5086 14.8365 14.7391 13.6789 14.7391 12.019H26.7391ZM19.5732 4.85307H13.7437V16.8531H19.5732V4.85307ZM13.7437 4.85307C11.839 4.85307 10.1861 5.62922 9.02335 6.64188C7.79962 7.70768 6.57776 9.53183 6.57776 11.9607H18.5778C18.5778 13.7483 17.6765 15.0186 16.9046 15.691C16.1937 16.3101 15.1237 16.8531 13.7437 16.8531V4.85307ZM6.57776 11.9607V33.7048H18.5778V11.9607H6.57776ZM6.57776 33.7048C6.57776 36.2023 7.86767 38.068 9.19756 39.1405C10.4456 40.1469 12.0546 40.7541 13.7437 40.7541V28.7541C14.9081 28.7541 15.9342 29.1573 16.7304 29.7994C17.6085 30.5075 18.5778 31.8486 18.5778 33.7048H6.57776ZM13.7437 40.7541H20.1562V28.7541H13.7437V40.7541ZM20.1562 40.7541C21.8453 40.7541 23.4543 40.1469 24.7023 39.1405C26.0322 38.068 27.3221 36.2022 27.3221 33.7048H15.3221C15.3221 31.8486 16.2914 30.5075 17.1695 29.7994C17.9657 29.1573 18.9918 28.7541 20.1562 28.7541V40.7541ZM27.3221 33.7048V21.113H15.3221V33.7048H27.3221ZM27.3221 21.113C27.3221 21.6166 27.132 22.2299 26.6425 22.7565C26.1383 23.299 25.3719 23.6736 24.5283 23.6736V11.6736C19.0014 11.6736 15.3221 16.2968 15.3221 21.113H27.3221ZM24.5283 23.6736C23.95 23.6736 23.2736 23.4467 22.7341 22.9072L31.2194 14.422C29.3974 12.6 26.9721 11.6736 24.5283 11.6736V23.6736ZM22.9629 23.1243C22.3559 22.578 22.0428 21.9623 21.9011 21.5292C21.7758 21.1464 21.7929 20.9401 21.7929 21.0547H33.7929C33.7929 19.3058 33.428 16.3986 30.9906 14.2049L22.9629 23.1243ZM21.7929 21.0547V33.5883H33.7929V21.0547H21.7929ZM21.7929 33.5883C21.7929 35.8311 22.8539 37.5717 23.9145 38.6324C24.9752 39.6931 26.7159 40.7542 28.9588 40.7542V28.7542C30.6188 28.7542 31.7765 29.5238 32.4 30.1473C33.0234 30.7707 33.7929 31.9284 33.7929 33.5883H21.7929ZM28.9588 40.7542H34.7883V28.7542H28.9588V40.7542ZM34.7883 40.7542C37.0312 40.7542 38.7718 39.6932 39.8325 38.6326C40.8932 37.5719 41.9543 35.8312 41.9543 33.5883H29.9543C29.9543 31.9283 30.7239 30.7706 31.3474 30.1471C31.9708 29.5237 33.1285 28.7542 34.7883 28.7542V40.7542ZM41.9543 33.5883V18.5481H29.9543V33.5883H41.9543ZM41.9543 18.548C41.9542 10.6549 35.7954 4.27014 27.7928 4.27014V16.2701C28.4805 16.2701 28.9838 16.5234 29.3266 16.8714C29.673 17.2229 29.9543 17.7746 29.9543 18.5481L41.9543 18.548ZM30.5456 29.2873L30.4874 29.3456L38.9726 37.8309L39.0309 37.7726L30.5456 29.2873ZM34.73 27.5883H29.017V39.5883H34.73V27.5883ZM35.017 33.5604L34.9587 21.0269L22.9588 21.0827L23.0171 33.6161L35.017 33.5604ZM34.9588 21.0548C34.9588 18.6486 34.3318 15.8439 32.0938 13.6059L23.6085 22.0912C23.3022 21.7849 23.109 21.436 23.0128 21.1552C22.9299 20.9132 22.9588 20.8394 22.9588 21.0548H34.9588ZM32.0938 13.6059C30.0613 11.5734 27.3551 10.5078 24.5866 10.5078V22.5078C24.2666 22.5078 23.8922 22.3749 23.6085 22.0912L32.0938 13.6059ZM24.4439 10.5095C18.6191 10.6481 14.2145 15.4106 14.2145 21.1131H26.2145C26.2145 21.3624 26.1086 21.714 25.8199 22.016C25.5317 22.3175 25.126 22.4966 24.7294 22.5061L24.4439 10.5095ZM14.2145 21.1131V33.5883H26.2145V21.1131H14.2145ZM20.2145 27.5883H13.802V39.5883H20.2145V27.5883ZM19.802 33.5883V12.019H7.80196V33.5883H19.802ZM13.802 18.019H19.5732V6.019H13.802V18.019ZM15.3306 16.2616L15.3888 16.3199L23.8741 7.83463L23.8158 7.77636L15.3306 16.2616ZM13.6315 12.0773V15.7499H25.6315V12.0773H13.6315ZM23.8741 19.9925L25.4481 18.4185L16.9628 9.93327L15.3888 11.5072L23.8741 19.9925ZM25.448 18.4186L25.5063 18.3604L17.0212 9.87492L16.9629 9.93319L25.448 18.4186ZM26.1461 17.6051C26.1253 17.6342 26.1553 17.5826 26.2738 17.5229C26.3886 17.465 26.5159 17.4361 26.6269 17.4361V5.43607C22.6091 5.43607 18.7175 7.35962 16.3814 10.6301L26.1461 17.6051ZM26.6269 17.4361H27.8511V5.43607H26.6269V17.4361ZM27.8511 17.4361C28.1408 17.4361 28.3352 17.5365 28.481 17.6866C28.6345 17.8446 28.7883 18.1209 28.7883 18.5481H40.7883C40.7883 11.4345 35.2324 5.43607 27.8511 5.43607V17.4361ZM28.7883 18.5481V33.53H40.7883V18.5481H28.7883Z" fill="#8AD2FB" mask="url(#path-5-inside-3)"/>
</svg>
